<svg width="1042" height="1198" viewBox="0 0 1042 1198" fill="none" xmlns="http://www.w3.org/2000/svg">
<rect width="1042" height="1198" fill=""/>
<g clip-path="url(#clip0_0_1)">
<path d="M360.681 595.284C360.732 601.599 363.285 607.635 367.779 612.068C372.273 616.502 378.342 618.969 384.653 618.929L793.109 616C799.419 615.952 805.452 613.398 809.881 608.9C814.31 604.402 816.772 598.328 816.727 592.013C816.682 585.699 814.132 579.661 809.639 575.227C805.147 570.793 799.078 568.326 792.767 568.368L384.312 571.297C378.001 571.348 371.968 573.902 367.538 578.4C363.108 582.897 360.642 588.969 360.681 595.284Z" fill="#F2F2F2"/>
<path d="M409.677 589.588C409.676 589.188 409.834 588.803 410.116 588.519C410.398 588.234 410.782 588.074 411.182 588.072L516.682 587.694C516.88 587.694 517.077 587.732 517.26 587.807C517.444 587.883 517.611 587.993 517.751 588.133C517.892 588.273 518.004 588.439 518.08 588.622C518.157 588.806 518.197 589.002 518.198 589.2C518.198 589.399 518.16 589.596 518.085 589.779C518.009 589.963 517.899 590.13 517.759 590.271C517.619 590.412 517.453 590.523 517.27 590.6C517.087 590.677 516.891 590.716 516.692 590.717L411.193 591.095C410.792 591.096 410.408 590.937 410.124 590.655C409.84 590.373 409.679 589.989 409.677 589.588Z" fill="#CCCCCC"/>
<path d="M409.799 603.444C409.798 603.043 409.956 602.658 410.238 602.374C410.52 602.09 410.904 601.929 411.304 601.927L682.934 600.315C683.132 600.314 683.329 600.352 683.512 600.426C683.696 600.501 683.863 600.612 684.004 600.751C684.145 600.891 684.258 601.057 684.334 601.24C684.411 601.423 684.452 601.619 684.453 601.818C684.454 602.016 684.416 602.213 684.341 602.397C684.266 602.58 684.156 602.748 684.016 602.889C683.877 603.03 683.711 603.142 683.528 603.219C683.345 603.296 683.149 603.336 682.951 603.338H682.944L411.315 604.95C410.914 604.951 410.53 604.793 410.246 604.511C409.962 604.228 409.801 603.845 409.799 603.444Z" fill="#CCCCCC"/>
<path d="M360.681 504.628C360.732 510.942 363.285 516.979 367.779 521.412C372.273 525.845 378.342 528.313 384.653 528.273L793.109 525.344C799.419 525.295 805.452 522.741 809.881 518.243C814.31 513.745 816.772 507.671 816.727 501.357C816.682 495.043 814.132 489.005 809.639 484.571C805.147 480.137 799.078 477.67 792.767 477.712L384.312 480.641C378.001 480.692 371.968 483.246 367.538 487.743C363.108 492.24 360.642 498.313 360.681 504.628Z" fill="#F2F2F2"/>
<path d="M405.192 512.787C405.191 512.387 405.349 512.002 405.631 511.718C405.913 511.433 406.297 511.273 406.697 511.271L678.327 509.658C678.525 509.658 678.722 509.696 678.905 509.771C679.089 509.847 679.256 509.957 679.397 510.097C679.537 510.237 679.649 510.403 679.726 510.586C679.802 510.769 679.842 510.966 679.843 511.164C679.843 511.363 679.805 511.559 679.73 511.743C679.655 511.927 679.544 512.094 679.404 512.235C679.264 512.375 679.098 512.487 678.915 512.564C678.732 512.641 678.536 512.68 678.338 512.681L406.708 514.294C406.307 514.295 405.923 514.137 405.639 513.854C405.355 513.572 405.194 513.188 405.192 512.787Z" fill="#CCCCCC"/>
<path d="M405.192 497.422C405.191 497.021 405.349 496.637 405.631 496.352C405.913 496.068 406.297 495.907 406.697 495.905L678.327 494.293C678.525 494.292 678.722 494.331 678.905 494.406C679.089 494.481 679.256 494.592 679.397 494.732C679.537 494.872 679.649 495.038 679.726 495.221C679.802 495.404 679.842 495.6 679.843 495.799C679.843 495.997 679.805 496.194 679.73 496.378C679.655 496.561 679.544 496.728 679.404 496.869C679.264 497.01 679.098 497.122 678.915 497.199C678.732 497.275 678.536 497.315 678.338 497.316L406.708 498.928C406.307 498.929 405.923 498.771 405.639 498.489C405.355 498.206 405.194 497.823 405.192 497.422Z" fill="#CCCCCC"/>
<path d="M480.224 700.368L71.7682 697.438C65.4578 697.396 59.3891 699.863 54.8961 704.297C50.4032 708.731 47.8538 714.769 47.8086 721.084C47.7634 727.398 50.2259 733.472 54.6549 737.97C59.0839 742.468 65.1167 745.022 71.427 745.07L479.883 747.999C486.193 748.041 492.262 745.574 496.755 741.14C501.248 736.706 503.797 730.668 503.842 724.354C503.888 718.04 501.425 711.966 496.996 707.468C492.567 702.97 486.534 700.416 480.224 700.368Z" fill="#F2F2F2"/>
<path d="M199.971 720.165L94.4712 719.787C94.2728 719.787 94.0765 719.747 93.8936 719.67C93.7106 719.593 93.5445 719.482 93.4047 719.341C93.2649 719.2 93.1543 719.033 93.079 718.849C93.0037 718.666 92.9654 718.469 92.9661 718.27C92.9668 718.072 93.0066 717.876 93.0831 717.692C93.1597 717.509 93.2715 717.343 93.4123 717.203C93.553 717.063 93.72 716.953 93.9035 716.877C94.087 716.802 94.2836 716.764 94.4819 716.764L199.982 717.142C200.18 717.142 200.377 717.181 200.56 717.258C200.744 717.334 200.911 717.446 201.051 717.587C201.191 717.728 201.302 717.895 201.377 718.079C201.453 718.263 201.492 718.46 201.491 718.659C201.49 718.857 201.45 719.054 201.373 719.238C201.297 719.421 201.184 719.587 201.043 719.727C200.902 719.867 200.735 719.978 200.551 720.053C200.367 720.128 200.169 720.166 199.971 720.165Z" fill="#CCCCCC"/>
<path d="M367.228 734.02L95.5982 732.408C95.3998 732.407 95.2035 732.367 95.0206 732.29C94.8376 732.214 94.6714 732.102 94.5317 731.961C94.3919 731.82 94.2813 731.653 94.206 731.47C94.1307 731.286 94.0924 731.089 94.0931 730.891C94.0938 730.692 94.1336 730.496 94.2101 730.313C94.2867 730.13 94.3985 729.964 94.5393 729.824C94.68 729.684 94.847 729.573 95.0305 729.498C95.214 729.422 95.4106 729.384 95.6089 729.385L367.239 730.997C367.437 730.998 367.633 731.038 367.816 731.114C367.999 731.191 368.165 731.303 368.305 731.444C368.445 731.585 368.555 731.752 368.631 731.935C368.706 732.119 368.744 732.316 368.744 732.514C368.743 732.713 368.703 732.909 368.627 733.092C368.55 733.275 368.438 733.441 368.297 733.581C368.157 733.721 367.99 733.832 367.806 733.907C367.623 733.982 367.426 734.021 367.228 734.02Z" fill="#CCCCCC"/>
<path d="M852.251 513.458C858.187 513.458 863 508.642 863 502.702C863 496.762 858.187 491.946 852.251 491.946C846.314 491.946 841.502 496.762 841.502 502.702C841.502 508.642 846.314 513.458 852.251 513.458Z" fill="#F2F2F2"/>
<path d="M852.251 604.114C858.187 604.114 863 599.299 863 593.358C863 587.418 858.187 582.603 852.251 582.603C846.314 582.603 841.502 587.418 841.502 593.358C841.502 599.299 846.314 604.114 852.251 604.114Z" fill="#F2F2F2"/>
<path d="M369.658 661.455L74.1407 705.751C71.7326 706.114 69.2767 705.998 66.9133 705.411C64.5499 704.823 62.3253 703.776 60.3667 702.328C58.4081 700.879 56.7539 699.059 55.4986 696.971C54.2432 694.883 53.4114 692.568 53.0507 690.158C52.6899 687.748 52.8072 685.291 53.396 682.927C53.9847 680.562 55.0334 678.337 56.4819 676.378C57.9305 674.419 59.7506 672.765 61.8382 671.511C63.9258 670.256 66.2401 669.425 68.6487 669.066L364.166 624.77C366.574 624.407 369.03 624.523 371.393 625.11C373.757 625.698 375.981 626.745 377.94 628.193C379.899 629.642 381.553 631.462 382.808 633.55C384.064 635.638 384.895 637.953 385.256 640.363C385.617 642.772 385.5 645.23 384.911 647.594C384.322 649.959 383.273 652.184 381.825 654.143C380.376 656.102 378.556 657.756 376.469 659.01C374.381 660.265 372.067 661.095 369.658 661.455Z" fill="#F9A826"/>
<path d="M164.045 672.034L87.7587 683.749C87.469 683.794 87.1736 683.721 86.9373 683.548C86.701 683.374 86.5433 683.114 86.4988 682.824C86.4544 682.534 86.5268 682.239 86.7002 682.002C86.8736 681.766 87.1338 681.608 87.4234 681.563L163.709 669.848C163.999 669.804 164.294 669.876 164.531 670.05C164.767 670.223 164.925 670.484 164.969 670.773C165.014 671.063 164.941 671.359 164.768 671.595C164.594 671.832 164.334 671.99 164.045 672.034Z" fill="white"/>
<path d="M286.491 663.041L90.0054 692.742C89.7157 692.786 89.4202 692.714 89.1839 692.54C88.9477 692.367 88.79 692.106 88.7455 691.817C88.7011 691.527 88.7735 691.231 88.9469 690.995C89.1203 690.758 89.3805 690.6 89.6701 690.556L286.156 660.856C286.3 660.833 286.446 660.839 286.587 660.874C286.729 660.908 286.862 660.97 286.979 661.056C287.096 661.142 287.195 661.25 287.271 661.374C287.346 661.499 287.396 661.637 287.419 661.78C287.441 661.924 287.434 662.071 287.399 662.212C287.365 662.353 287.302 662.486 287.216 662.603C287.13 662.721 287.022 662.82 286.897 662.895C286.773 662.97 286.635 663.02 286.491 663.041Z" fill="white"/>
<path d="M301.009 639.159C299.863 639.093 298.745 638.778 297.733 638.237C296.72 637.695 295.837 636.94 295.145 636.024C294.453 635.108 293.968 634.052 293.723 632.929C293.479 631.807 293.481 630.645 293.73 629.523L261.61 606.505L265.788 596.05L303.738 623.668C305.594 624.227 307.179 625.448 308.195 627.099C309.211 628.75 309.587 630.717 309.251 632.626C308.914 634.536 307.889 636.256 306.371 637.46C304.852 638.664 302.944 639.269 301.009 639.159Z" fill="#A0616A"/>
<path d="M214.719 510.463L195.418 517.531C194.57 517.841 193.792 518.316 193.127 518.928C192.462 519.539 191.924 520.276 191.544 521.096C191.164 521.915 190.949 522.802 190.911 523.705C190.873 524.608 191.013 525.509 191.324 526.358C191.399 526.565 191.485 526.769 191.58 526.968L217.896 581.898L281.301 627.625L291.019 612.131L242.989 568.368L214.719 510.463Z" fill="#3F3D56"/>
<path d="M206.783 624.063C184.787 622.018 163.241 616.937 141.212 615.228L150.053 592.713L195.235 599.446L206.783 624.063Z" fill="#A0616A"/>
<path d="M132.158 629.358L131.967 631.044L130.394 644.589L128.552 644.701L128.451 661.663C129.03 663.342 129.027 665.167 128.442 666.843C127.857 668.52 126.724 669.95 125.227 670.903C124.978 671.063 124.719 671.206 124.452 671.33C123.331 662.526 123.669 653.598 125.451 644.904C126.167 641.669 127.221 638.519 128.597 635.506C129.29 634.015 130.078 632.569 130.956 631.179C131.327 630.56 131.731 629.953 132.158 629.358Z" fill="#2F2E41"/>
<path d="M132.506 626.435L132.158 629.346V629.358L131.967 631.044C131.473 631.111 131.124 631.156 130.956 631.179C130.915 631.185 130.874 631.189 130.832 631.19L132.506 626.435Z" fill="#F9A826"/>
<path d="M212.49 570.614L208.693 592.713C208.693 592.713 217.916 613.508 211.568 618.69C210.792 619.387 210.195 620.26 209.827 621.237C209.46 622.213 209.332 623.263 209.457 624.299C208.558 624.221 207.67 624.142 206.783 624.063C184.787 622.018 163.241 616.937 141.212 615.228C139.651 615.105 138.1 614.992 136.539 614.913L143.324 595.602L138.741 578.438L133.989 560.632L132.967 531.317C132.942 530.762 132.946 530.207 132.978 529.653C132.978 529.361 132.989 529.08 133.012 528.788C133.259 525.085 134.331 521.486 136.151 518.253C137.97 515.02 140.491 512.236 143.526 510.106C143.535 510.104 143.543 510.1 143.549 510.094C144.584 509.368 145.673 508.722 146.807 508.161C148.024 507.557 149.291 507.057 150.592 506.666L151.895 506.273L158.95 494.852L167.128 493.998L170.161 493.683L189.921 491.626L194.179 497.156L194.954 498.168L197.953 502.057L207.3 507.037C209.343 508.121 211.21 509.508 212.838 511.151C216.659 514.974 219.031 520.01 219.544 525.393C219.668 526.633 219.691 527.881 219.612 529.125L212.49 570.614Z" fill="#3F3D56"/>
<path d="M116.305 471.088C116.102 479.824 119.365 488.284 124.052 495.714C125.618 491.399 127.811 487.34 130.56 483.665C129.243 491.806 130.645 500.154 134.549 507.418C134.686 507.516 134.829 507.608 134.976 507.692C136.85 508.909 138.976 509.683 141.194 509.955C143.411 510.227 145.661 509.99 147.774 509.262C143.601 504.537 141.098 498.568 140.653 492.278C140.207 485.988 141.842 479.726 145.307 474.458C147.334 471.526 149.955 468.933 151.211 465.597C153.193 460.274 151.288 454.413 150.085 448.863C148.961 443.697 148.765 437.551 152.228 433.765C151.858 433.236 151.354 432.815 150.768 432.545C150.182 432.275 149.535 432.166 148.892 432.228C147.848 432.493 146.881 433 146.068 433.707C145.256 434.414 144.62 435.302 144.213 436.3C143.414 438.299 142.401 440.205 141.19 441.985C138.636 445.077 134.285 445.808 130.618 447.438C121.739 451.395 116.518 461.367 116.305 471.088Z" fill="#2F2E41"/>
<path d="M191.047 466.093C190.54 464.316 194.037 475.179 192.35 475.375C184.663 476.257 174.111 480.851 168.758 482.994C168.517 482.966 168.276 482.938 168.042 482.903C167.467 482.84 166.907 482.749 166.354 482.643C153.888 480.283 149.095 461.123 149.095 460.947C149.095 460.086 151.161 436.428 154.415 436.078C155.27 435.985 156.129 435.938 156.989 435.937H165.066C166.737 435.577 168.431 435.331 170.136 435.202H170.15C186.409 433.963 199.23 443.879 198.031 455.945C198.024 455.959 198.01 455.973 198.003 455.987C197.655 456.506 197.351 456.996 197.081 457.465C196.819 457.906 196.599 458.326 196.407 458.726C194.925 461.807 198.735 465.684 196.209 466.408C192.849 467.371 205.045 499.008 191.747 499.008C198.215 500.848 192.447 470.995 191.047 466.093Z" fill="#2F2E41"/>
<path d="M176.533 484.656C187.094 484.656 195.655 476.09 195.655 465.522C195.655 454.955 187.094 446.388 176.533 446.388C165.972 446.388 157.411 454.955 157.411 465.522C157.411 476.09 165.972 484.656 176.533 484.656Z" fill="#A0616A"/>
<path d="M198.031 456.989C197.712 457.157 197.4 457.311 197.081 457.465C196.748 457.626 196.415 457.787 196.081 457.934C189.678 460.841 184.466 461.163 181.304 456.989C181.219 454.793 180.726 452.632 179.85 450.616C180.005 452.869 179.412 455.109 178.163 456.989H171.795C165.236 461.345 161.868 461.8 166.42 476.101C167.689 480.085 172.736 503.273 170.751 506.711C170.177 506.648 164.066 481.251 163.513 481.146C151.047 478.786 143.127 458.236 144.141 457.073C144.136 453.767 144.895 450.505 146.36 447.542C148.213 443.788 151.102 440.643 154.685 438.48C156.82 437.444 159.047 436.607 161.336 435.98C161.393 435.966 161.442 435.952 161.499 435.938C162.201 435.749 162.917 435.574 163.633 435.426C165.113 435.114 166.609 434.887 168.115 434.747C168.221 434.74 168.328 434.733 168.427 434.733C169.028 434.735 169.618 434.897 170.136 435.202C170.143 435.202 170.143 435.209 170.15 435.209C170.52 435.426 170.843 435.714 171.1 436.057C171.553 436.634 171.798 437.347 171.795 438.081H178.886C179.148 438.081 179.411 438.088 179.673 438.102C184.406 438.263 188.907 440.187 192.298 443.495C195.688 446.803 197.722 451.258 198.003 455.988C198.024 456.324 198.031 456.653 198.031 456.989Z" fill="#2F2E41"/>
<path d="M156.222 450.872C163.179 450.872 168.82 445.229 168.82 438.267C168.82 431.305 163.179 425.661 156.222 425.661C149.264 425.661 143.624 431.305 143.624 438.267C143.624 445.229 149.264 450.872 156.222 450.872Z" fill="#2F2E41"/>
<path d="M125.227 670.903C124.978 671.063 124.719 671.206 124.452 671.33C123.52 671.79 122.507 672.061 121.47 672.129C120.433 672.196 119.394 672.059 118.41 671.725C117.427 671.39 116.518 670.865 115.738 670.179C114.957 669.494 114.319 668.661 113.86 667.729C113.4 666.796 113.129 665.782 113.062 664.745C112.994 663.708 113.131 662.668 113.466 661.683C113.8 660.699 114.325 659.79 115.01 659.009C115.695 658.228 116.527 657.589 117.459 657.13C117.594 657.064 117.73 657.001 117.869 656.942L117.846 645.376L117.824 631.763L117.801 617.409L128.72 614.711L128.597 635.506L128.552 644.701L128.451 661.663C129.03 663.342 129.027 665.167 128.442 666.843C127.857 668.52 126.724 669.95 125.227 670.903Z" fill="#A0616A"/>
<path d="M168.386 523.268L167.252 525.393L138.741 578.437L137.887 580.022L133.854 614.79L132.506 626.435L132.158 629.346V629.358L131.967 631.044L130.394 644.589L128.552 644.701L125.451 644.903L117.846 645.376L112.151 645.735L112.162 636.619L112.263 567.534L132.978 529.653L133.483 528.72L141.482 514.096C142.36 512.492 143.839 511.303 145.593 510.791C147.348 510.278 149.234 510.484 150.836 511.363C151.026 511.467 151.211 511.58 151.39 511.701L168.386 523.268Z" fill="#3F3D56"/>
<path d="M10.7491 727.038C16.6857 727.038 21.4982 722.223 21.4982 716.282C21.4982 710.342 16.6857 705.526 10.7491 705.526C4.81254 705.526 0 710.342 0 716.282C0 722.223 4.81254 727.038 10.7491 727.038Z" fill="#F2F2F2"/>
<path d="M747.721 326.442C747.721 326.442 743.823 367.729 741.666 398.292V398.315C741.497 400.776 741.34 403.155 741.194 405.452L740.048 405.554C739.262 405.632 738.487 405.722 737.7 405.801C725.141 407.138 712.705 409.353 700.225 411.275C699.023 411.455 697.821 411.635 696.619 411.815C684.17 413.849 671.577 414.871 658.964 414.872H658.728C658.829 413.298 658.986 411.241 659.166 408.881C660.222 395.516 662.356 372.349 662.356 372.349L664.345 358.938L670.849 315.01L670.894 314.673L670.95 314.291L671.264 314.212L684.925 310.66L692.271 308.76L696.54 302.87L702.224 295.024L725.86 297.935L727.59 304.388L730.792 316.28L730.893 316.662L743.295 323.868L747.721 326.442Z" fill="#E6E6E6"/>
<path d="M713.982 292.483C727.816 292.483 739.031 281.262 739.031 267.419C739.031 253.577 727.816 242.355 713.982 242.355C700.148 242.355 688.934 253.577 688.934 267.419C688.934 281.262 700.148 292.483 713.982 292.483Z" fill="#FFB6B6"/>
<path d="M687.736 252.251C689.935 254.029 689.432 262.678 691.883 261.269C694.333 259.859 694.843 257.334 697.665 257.308C699.966 257.435 702.136 258.418 703.75 260.063C704.05 260.335 704.336 260.62 704.614 260.901C704.867 260.812 705.118 260.731 705.382 260.665C707.361 260.182 709.45 260.476 711.219 261.488C709.586 261.604 708.03 262.232 706.773 263.281C707.312 263.885 707.858 264.493 708.433 265.054C713.23 269.758 723.066 264.749 729.68 263.618C724.171 269.637 725.257 272.996 726.628 281.04L726.633 281.48C726.915 279.625 732.853 279.717 731.874 282.179C730.644 284.61 729.106 286.873 727.297 288.91C735.388 283.302 741.919 275.572 743.362 266.234C743.891 264.319 743.999 262.313 743.677 260.353C743.44 259.385 742.889 258.523 742.11 257.902C741.331 257.28 740.368 256.935 739.373 256.919C740.274 254.054 740.382 250.999 739.687 248.077C738.991 245.156 737.518 242.478 735.423 240.328C733.328 238.178 730.689 236.636 727.789 235.866C724.888 235.096 721.832 235.127 718.948 235.956C716.317 236.892 713.75 238.001 711.265 239.275C708.756 240.553 705.917 241.035 703.127 240.654C701.39 240.294 699.63 239.394 697.926 239.904C695.953 240.496 695.104 242.582 694.313 244.595C695.798 245.138 697.087 246.111 698.017 247.391C696.482 246.824 694.807 246.756 693.231 247.197C693.202 247.202 693.174 247.209 693.146 247.22C691.359 250.424 691.256 251.21 687.736 252.251Z" fill="#2F2E41"/>
<path d="M700.225 411.275C699.023 411.455 697.821 411.635 696.619 411.815C684.17 413.849 671.577 414.871 658.964 414.872C659.053 412.882 659.11 410.882 659.166 408.881C659.244 406.082 659.301 403.272 659.357 400.461C659.615 387.726 659.873 374.994 660.132 362.266C660.143 361.659 660.154 361.04 660.165 360.433C660.424 347.563 660.772 334.265 666.108 322.541C667.327 319.87 668.846 317.348 670.635 315.021C670.725 314.897 670.804 314.785 670.894 314.673C671.017 314.515 671.141 314.358 671.264 314.212C672.697 312.424 674.292 310.772 676.027 309.277C678.71 306.805 681.857 304.892 685.287 303.651C688.716 302.41 692.359 301.866 696.001 302.049L696.54 302.87L697.259 303.983C696.787 307.501 696.304 311.031 695.855 314.56C693.911 329.859 692.518 345.247 694.08 360.557C695.405 373.428 698.809 386.028 699.888 398.91C699.932 399.337 699.966 399.776 700 400.203C700.266 403.887 700.341 407.583 700.225 411.275Z" fill="#3F3D56"/>
<path d="M740.045 405.546C740.598 403.149 741.12 400.737 741.673 398.309V398.294C743.808 388.705 745.947 379.117 748.092 369.529C750.902 356.96 753.712 343.961 751.301 331.315C751.056 330.014 750.744 328.727 750.365 327.459C750.242 327.044 750.104 326.629 749.965 326.214C748.997 323.301 747.682 320.515 746.05 317.917C741.781 311.094 735.393 305.793 727.592 304.395C727.446 304.351 727.298 304.32 727.147 304.303L725.442 305.885C725.089 309.158 724.751 312.462 724.382 315.75C722.632 331.315 720.344 346.865 715.108 361.585C710.624 374.185 704.051 385.97 699.951 398.693C699.936 398.77 699.905 398.847 699.89 398.908C698.537 403.14 697.445 407.45 696.619 411.815C697.817 411.631 699.03 411.462 700.228 411.277C712.712 409.357 725.135 407.144 737.696 405.807L740.045 405.546Z" fill="#3F3D56"/>
<path d="M764.445 262.146L763.727 255.244L763.558 253.648L763.3 251.085L757.75 197.815C758.209 196.279 758.146 194.633 757.571 193.136C756.996 191.639 755.941 190.375 754.571 189.542C752.989 188.598 751.097 188.321 749.31 188.772C747.524 189.223 745.99 190.365 745.045 191.948C745.011 192.004 744.989 192.06 744.955 192.116C744.012 193.762 743.747 195.712 744.217 197.55C744.686 199.389 745.854 200.972 747.471 201.963C747.806 202.155 748.156 202.32 748.516 202.458L748.471 203.953L748.337 208.64L748.235 212.181L748.022 219.229L747.943 221.96L747.685 230.818L747.438 239.361L747.134 249.713L746.899 257.672L749.763 258.402L764.445 262.146Z" fill="#FFB6B6"/>
<path d="M769.995 273.487C769.875 272.563 769.653 271.654 769.332 270.778C767.883 268.261 766.996 271.779 767.793 265.034C768.434 259.56 764.592 260.246 765.973 259.077C768.254 257.144 765.108 256.289 763.727 255.244C763.109 254.783 762.85 254.288 763.558 253.648C763.89 253.358 764.261 253.116 764.659 252.928C766.164 252.141 765.299 251.546 763.3 251.085C758.802 250.335 754.255 249.91 749.696 249.815C748.595 249.758 747.696 249.736 747.135 249.713C746.719 249.702 746.483 249.702 746.483 249.702C745.699 250.446 745.209 251.448 745.101 252.523C744.769 254.808 744.945 257.138 745.618 259.347C746.08 260.88 746.693 262.364 747.449 263.775C747.738 264.305 747.87 264.905 747.831 265.507V265.518C747.751 265.873 747.594 266.206 747.37 266.494C747.147 266.781 746.863 267.016 746.539 267.181C745.022 268.193 745.865 270.317 747.045 272.318C748.047 273.659 748.899 275.107 749.583 276.635C749.583 278.017 740.237 307.4 740.237 307.4L743.674 351.767C746.224 353.735 749.441 354.626 752.639 354.252C755.306 353.803 757.772 352.547 759.705 350.655C762.425 347.994 764.636 344.859 766.232 341.403C775.308 323.16 771.927 284.256 769.995 273.487Z" fill="#3F3D56"/>
<path d="M599.553 200.319C601.258 201.151 602.57 202.615 603.213 204.401C603.855 206.186 603.775 208.152 602.991 209.879C602.826 210.228 602.632 210.562 602.412 210.879L634.734 255.653L622.718 269.215L592.162 212.23C590.921 211.215 590.05 209.818 589.685 208.255C589.32 206.693 589.483 205.054 590.147 203.594C590.927 201.924 592.338 200.631 594.069 200.002C595.801 199.372 597.712 199.456 599.381 200.236C599.439 200.263 599.496 200.291 599.553 200.319Z" fill="#FFB6B6"/>
<path d="M690.158 331.601C690.158 331.601 685.837 347.065 665.672 335.703C645.506 324.341 623.697 281.914 623.479 279.007C623.262 276.099 625.971 278.516 621.532 273.387C617.922 269.216 621.487 267.623 619.69 267.43C614.951 266.921 623.179 260.911 617.327 261.6C611.476 262.29 630.556 248.72 630.556 248.72C630.556 248.72 634.033 248.803 636.687 256.22C638.177 260.385 636.769 263.235 640.322 263.219C643.874 263.203 642.353 271.643 643.104 272.758C643.856 273.873 668.099 292.957 668.099 292.957L690.158 331.601Z" fill="#3F3D56"/>
<path d="M663.33 233.806C727.853 233.806 780.159 181.467 780.159 116.903C780.159 52.3393 727.853 0 663.33 0C598.806 0 546.5 52.3393 546.5 116.903C546.5 181.467 598.806 233.806 663.33 233.806Z" fill="#F9A826"/>
<path d="M603.965 90.8879C605.18 93.2031 606.108 95.6581 606.729 98.1983C608.313 104.877 607.201 110.939 603.557 113.782C603.193 114.077 602.799 114.335 602.383 114.552C597.825 116.938 591.535 114.42 586.495 108.787C584.764 106.828 583.278 104.664 582.071 102.345C580.862 100.055 579.942 97.6253 579.329 95.1098C577.553 87.7332 579.067 81.0802 583.639 78.6877C589.694 75.519 598.792 80.9891 603.965 90.8879Z" fill="white"/>
<path d="M602.03 102.304C603.881 105.829 604.422 109.896 603.557 113.782C603.193 114.077 602.799 114.335 602.383 114.552C597.825 116.938 591.535 114.42 586.494 108.787C584.763 106.828 583.278 104.664 582.071 102.345C580.862 100.055 579.942 97.6253 579.329 95.1097C583.295 93.0628 587.909 92.6705 592.163 94.0188C596.418 95.3671 599.965 98.3461 602.03 102.304Z" fill="#3F3D56"/>
<path d="M649.319 67.1547C654.286 76.6587 653.832 86.7974 648.437 90.4009C648.212 90.5537 647.978 90.6933 647.737 90.8191C641.695 93.9806 632.598 88.5106 627.424 78.6119C626.218 76.3269 625.3 73.9012 624.69 71.3903C622.907 64.0001 624.421 57.3471 628.993 54.9546C635.048 51.7859 644.145 57.2559 649.319 67.1547Z" fill="white"/>
<path d="M646.934 78.8064C648.805 82.3672 649.337 86.4807 648.437 90.4009C648.212 90.5537 647.978 90.6933 647.737 90.8191C641.695 93.9807 632.598 88.5107 627.424 78.6119C626.218 76.3269 625.3 73.9012 624.69 71.3903C628.635 69.5015 633.16 69.219 637.309 70.6025C641.459 71.9859 644.91 74.9271 646.934 78.8064Z" fill="#3F3D56"/>
<path d="M598.236 158.043C611.992 184.363 638.678 197.57 657.842 187.541C677.005 177.513 681.39 148.048 667.634 121.728C652.523 143.773 629.638 156.185 598.236 158.043Z" fill="white"/>
<path opacity="0.2" d="M766.998 62.9017C755.881 41.6313 738.492 24.2992 717.191 13.2584C695.89 2.21756 671.711 -1.9971 647.934 1.18656C676.008 4.88319 701.785 18.6557 720.473 39.9431C739.16 61.2306 749.486 88.5844 749.53 116.918C749.574 145.252 739.334 172.638 720.713 193.984C702.092 215.33 676.358 229.183 648.295 232.967C669.499 235.754 691.061 232.663 710.629 224.03C730.198 215.397 747.022 201.554 759.268 184.01C771.513 166.466 778.71 145.895 780.073 124.539C781.436 103.183 776.913 81.8621 766.998 62.9017Z" fill="black"/>
</g>
<g clip-path="url(#clip1_0_1)">
<path d="M938.499 1109.23C938.101 1124.1 935.61 1138.84 931.099 1153.02C930.999 1153.35 930.888 1153.67 930.78 1154H903.167C903.196 1153.71 903.226 1153.38 903.255 1153.02C905.096 1131.85 894.578 1004.57 881.886 982.535C882.998 984.322 940.64 1041.98 938.499 1109.23Z" fill="#F0F0F0"/>
<path d="M936.427 1153.02C936.196 1153.35 935.956 1153.68 935.71 1154H914.994C915.151 1153.72 915.333 1153.39 915.544 1153.02C918.966 1146.84 929.095 1128.38 938.497 1109.23C948.597 1088.66 957.871 1067.31 957.09 1059.58C957.332 1061.32 964.324 1114.46 936.427 1153.02Z" fill="#F0F0F0"/>
<path d="M1005.92 1129.46C1005.7 1137.61 1004.34 1145.69 1001.87 1153.46C1001.81 1153.64 1001.75 1153.82 1001.69 1154H986.553C986.569 1153.84 986.585 1153.66 986.601 1153.46C987.61 1141.86 981.844 1072.08 974.886 1060C975.496 1060.98 1007.1 1092.59 1005.92 1129.46Z" fill="#F0F0F0"/>
<path d="M1004.79 1153.46C1004.66 1153.64 1004.53 1153.82 1004.39 1154H993.036C993.123 1153.85 993.222 1153.67 993.338 1153.46C995.214 1150.08 1000.77 1139.95 1005.92 1129.46C1011.46 1118.18 1016.54 1106.47 1016.11 1102.24C1016.25 1103.19 1020.08 1132.32 1004.79 1153.46Z" fill="#F0F0F0"/>
<path d="M862.922 1129.46C862.704 1137.61 861.338 1145.69 858.866 1153.46C858.811 1153.64 858.75 1153.82 858.691 1154H843.553C843.569 1153.84 843.585 1153.66 843.601 1153.46C844.61 1141.86 838.844 1072.08 831.886 1060C832.496 1060.98 864.096 1092.59 862.922 1129.46Z" fill="#F0F0F0"/>
<path d="M861.786 1153.46C861.66 1153.64 861.528 1153.82 861.393 1154H850.036C850.123 1153.85 850.222 1153.67 850.338 1153.46C852.214 1150.08 857.767 1139.95 862.921 1129.46C868.458 1118.18 873.542 1106.47 873.114 1102.24C873.247 1103.19 877.08 1132.32 861.786 1153.46Z" fill="#F0F0F0"/>
<path d="M589.574 1139.1H604.13L611.055 1082.95L589.572 1082.96L589.574 1139.1Z" fill="#FFB7B7"/>
<path d="M585.861 1134.35L614.527 1134.35H614.529C619.374 1134.35 624.02 1136.27 627.446 1139.7C630.872 1143.12 632.797 1147.77 632.797 1152.61V1153.21L585.862 1153.21L585.861 1134.35Z" fill="#2F2E41"/>
<path d="M510.763 1139.1H525.319L532.243 1082.95L510.76 1082.96L510.763 1139.1Z" fill="#FFB7B7"/>
<path d="M507.05 1134.35L535.716 1134.35H535.717C540.562 1134.35 545.208 1136.27 548.634 1139.7C552.06 1143.12 553.985 1147.77 553.985 1152.61V1153.21L507.05 1153.21L507.05 1134.35Z" fill="#2F2E41"/>
<path d="M504.832 884.638V1032.88L508.585 1128.58H539.547L549.867 948.438L570.508 1022.56L583.644 1126.7L621.173 1124.83L595.841 884.638H504.832Z" fill="#2F2E41"/>
<path d="M540.824 751.409C553.261 751.409 563.342 741.327 563.342 728.891C563.342 716.455 553.261 706.373 540.824 706.373C528.388 706.373 518.307 716.455 518.307 728.891C518.307 741.327 528.388 751.409 540.824 751.409Z" fill="#FFB8B8"/>
<path d="M531.468 757.275L525.473 763.606L519.844 890.268L586.458 888.391L570.508 777.68L556.435 764.193L549.294 757.275H531.468Z" fill="#F9A826"/>
<path d="M520.782 771.112L525.838 762.905L527.349 780.494C527.349 780.494 539.546 819.9 538.608 854.614C537.67 889.329 543.299 970.955 535.794 971.894C528.288 972.832 496.388 974.708 496.388 968.141C496.388 961.573 494.511 787.062 494.511 787.062L520.782 771.112Z" fill="#3F3D56"/>
<path d="M554.924 762.905L567.693 772.988L595.84 783.309C595.84 783.309 595.84 903.402 601.47 931.549C607.099 959.697 617.42 962.511 604.285 963.449C591.149 964.388 592.088 959.697 592.088 959.697C592.088 959.697 601.47 912.785 589.273 903.402C577.076 894.02 553.62 839.603 555.496 809.579C557.373 779.556 553.047 762.905 554.924 762.905Z" fill="#3F3D56"/>
<path d="M519.522 735.936C519.522 735.936 521.435 732.576 520.99 721.352C520.545 710.128 537.637 716.476 551.919 715.406C566.2 714.335 563.177 734.144 563.177 734.144C563.177 734.144 564.207 732.967 566.413 723.406C568.619 713.845 563.611 704.318 563.611 704.318C562.136 694.271 554.186 697.491 554.186 697.491C558.014 698.982 557.279 702.169 557.279 702.169C554.038 696.487 546.088 699.707 546.088 699.707C535.485 693.053 524.739 701.815 524.739 701.815C511.93 704.722 519.442 714.908 519.442 714.908C506.561 721.418 519.522 735.936 519.522 735.936Z" fill="#2F2E41"/>
<path d="M496.419 954.574C497.374 953.565 498.095 952.36 498.533 951.042C498.971 949.724 499.115 948.327 498.955 946.947C498.794 945.568 498.333 944.241 497.604 943.059C496.875 941.877 495.895 940.869 494.735 940.107L498.791 918.783L486.434 913.158L481.129 943.351C479.977 945.386 479.612 947.772 480.102 950.058C480.593 952.344 481.904 954.371 483.789 955.754C485.674 957.138 488.001 957.782 490.328 957.564C492.656 957.347 494.823 956.283 496.419 954.574Z" fill="#FFB7B7"/>
<path d="M499.202 787.062L496.711 785.726C496.711 785.726 483.252 790.814 484.191 794.567C485.129 798.32 476.685 929.673 479.499 934.364C482.314 939.055 504.832 935.302 504.832 935.302L499.202 787.062Z" fill="#3F3D56"/>
<path d="M606.31 945.731C605.225 944.864 604.344 943.77 603.727 942.525C603.111 941.281 602.775 939.916 602.744 938.528C602.712 937.14 602.985 935.761 603.543 934.49C604.102 933.219 604.932 932.085 605.976 931.169L599.009 910.612L610.469 903.331L619.901 932.5C621.323 934.356 622.015 936.669 621.845 939.001C621.676 941.332 620.657 943.521 618.982 945.152C617.307 946.783 615.091 947.742 612.756 947.849C610.42 947.956 608.127 947.202 606.31 945.731Z" fill="#FFB7B7"/>
<path d="M595.312 927.808C595.312 927.808 618.132 928.41 620.271 923.374C622.409 918.339 595.872 789.418 596.282 785.571C596.692 781.724 582.659 778.547 582.659 778.547L580.376 780.214L595.312 927.808Z" fill="#3F3D56"/>
<path d="M696.171 933.609L682.043 864.38L675.837 813.247L662.087 822.142L663.987 878.49L685.932 936.873C685.227 938.216 684.937 939.739 685.1 941.247C685.262 942.756 685.869 944.182 686.844 945.345C687.819 946.507 689.118 947.353 690.575 947.776C692.033 948.198 693.583 948.178 695.028 947.717C696.474 947.256 697.75 946.376 698.694 945.188C699.638 944 700.207 942.559 700.33 941.046C700.453 939.534 700.123 938.02 699.382 936.695C698.642 935.371 697.524 934.297 696.171 933.609Z" fill="#FFB7B7"/>
<path d="M564.031 938.962L567.942 868.414L566.646 816.923L584.824 823.724L587.858 879.749L574.636 940.702C575.529 941.928 576.037 943.393 576.096 944.909C576.155 946.425 575.761 947.925 574.965 949.216C574.17 950.508 573.008 951.534 571.628 952.164C570.247 952.794 568.711 952.999 567.214 952.754C565.716 952.508 564.326 951.823 563.219 950.785C562.112 949.747 561.339 948.403 560.998 946.925C560.657 945.447 560.763 943.9 561.303 942.482C561.843 941.064 562.793 939.839 564.031 938.962Z" fill="#FFB7B7"/>
<path d="M602.101 1144.07H611.389L615.808 1108.24L602.1 1108.25L602.101 1144.07Z" fill="#FFB7B7"/>
<path d="M599.732 1141.04L618.023 1141.04C621.115 1141.04 624.081 1142.27 626.267 1144.45C628.453 1146.64 629.681 1149.6 629.681 1152.69V1153.07L599.732 1153.07L599.732 1141.04Z" fill="#2F2E41"/>
<path d="M637.281 1139.96L646.46 1141.38L656.305 1106.65L642.757 1104.56L637.281 1139.96Z" fill="#FFB7B7"/>
<path d="M635.403 1136.6L653.48 1139.4C656.535 1139.87 659.278 1141.54 661.104 1144.03C662.93 1146.53 663.691 1149.64 663.218 1152.7L663.16 1153.07L633.564 1148.5L635.403 1136.6Z" fill="#2F2E41"/>
<path d="M599.373 1133.37L599.325 1133.11L565.7 951.318C563.031 936.723 565.16 921.657 571.769 908.373L592.12 867.671L652.847 875.898L660.014 927.719L685.554 1026.57L685.528 1026.66L652.806 1130.6L631.361 1132.01L650.358 1039.23L615.574 960.219L618.027 1131.96L599.373 1133.37Z" fill="#2F2E41"/>
<path d="M654.261 882.53L653.86 881.902C653.788 881.788 646.411 870.675 626.338 878.095C605.847 885.672 589.97 871.039 589.811 870.89L589.733 870.816L585.092 829.454L579.614 795.876L597.053 792.817L605.626 787.673L639.718 787.066L648.69 794.122L663.419 795.727L664.768 826.323L664.761 826.356L654.261 882.53Z" fill="#F9A826"/>
<path d="M659.147 829.282V803.084L663.289 795.525L663.457 795.52C666.718 795.641 669.8 797.041 672.036 799.417C676.202 803.65 678.089 810.703 677.646 820.379L677.637 820.556L659.147 829.282Z" fill="#F9A826"/>
<path d="M586.952 826.434L565.841 823.901L565.825 823.658C565.105 813.13 566.942 805.316 571.286 800.431C573.467 797.819 576.56 796.135 579.937 795.721L580.059 795.715L585.774 800.911L586.952 826.434Z" fill="#F9A826"/>
<path d="M648.064 776.51H592.512C591.37 776.508 590.274 776.054 589.466 775.246C588.658 774.438 588.204 773.342 588.202 772.2V752.086C588.195 747.868 589.02 743.69 590.629 739.791C592.239 735.892 594.601 732.348 597.581 729.363C600.561 726.378 604.101 724.01 607.997 722.394C611.894 720.778 616.07 719.946 620.288 719.946C624.507 719.946 628.683 720.778 632.58 722.394C636.476 724.01 640.015 726.378 642.996 729.363C645.976 732.348 648.338 735.892 649.947 739.791C651.557 743.69 652.381 747.868 652.374 752.086V772.2C652.373 773.342 651.919 774.438 651.111 775.246C650.303 776.054 649.207 776.508 648.064 776.51Z" fill="#2F2E41"/>
<path d="M621.578 776.312C634.57 776.312 645.102 765.779 645.102 752.787C645.102 739.795 634.57 729.263 621.578 729.263C608.586 729.263 598.054 739.795 598.054 752.787C598.054 765.779 608.586 776.312 621.578 776.312Z" fill="#FFB7B7"/>
<path d="M643.938 753.523H612.88C612.297 753.522 611.734 753.308 611.296 752.922C610.859 752.536 610.577 752.004 610.505 751.425L610.102 748.208C610.064 747.899 609.926 747.61 609.709 747.386C609.492 747.163 609.208 747.015 608.9 746.967C608.592 746.918 608.277 746.971 608.002 747.118C607.727 747.264 607.507 747.496 607.375 747.779L605.339 752.141C605.145 752.553 604.838 752.902 604.454 753.146C604.07 753.391 603.624 753.522 603.169 753.523H598.451C598.118 753.523 597.788 753.453 597.482 753.318C597.177 753.183 596.904 752.986 596.679 752.739C596.455 752.492 596.284 752.201 596.179 751.884C596.074 751.567 596.036 751.232 596.068 750.9L597.928 731.47C597.968 731.054 598.115 730.656 598.355 730.314C598.594 729.972 598.919 729.699 599.296 729.52C613.52 722.88 627.943 722.888 642.167 729.545C642.528 729.715 642.841 729.972 643.077 730.293C643.314 730.613 643.467 730.988 643.522 731.383L646.308 750.788C646.357 751.127 646.333 751.474 646.236 751.803C646.139 752.132 645.973 752.437 645.748 752.697C645.523 752.956 645.245 753.164 644.933 753.307C644.621 753.449 644.282 753.523 643.938 753.523Z" fill="#2F2E41"/>
<path d="M656.717 935.809C657.901 935.39 658.979 934.717 659.875 933.836C660.77 932.955 661.462 931.889 661.901 930.712C662.34 929.535 662.515 928.276 662.415 927.024C662.315 925.772 661.941 924.557 661.321 923.465L681.456 900.512L665.738 898.343L649.027 920.473C647.261 921.637 645.984 923.408 645.437 925.451C644.89 927.494 645.112 929.666 646.06 931.557C647.008 933.447 648.616 934.924 650.58 935.708C652.545 936.492 654.728 936.528 656.717 935.809Z" fill="#9F616A"/>
<path d="M681 1139.23L666.957 1139.23L660.276 1085.07L681.003 1085.07L681 1139.23Z" fill="#9F616A"/>
<path d="M684.581 1152.85L639.301 1152.84V1152.27C639.301 1147.6 641.158 1143.12 644.463 1139.81C647.768 1136.51 652.251 1134.65 656.925 1134.65H656.926L684.582 1134.65L684.581 1152.85Z" fill="#2F2E41"/>
<path d="M754.511 1127.48L741.099 1131.65L718.656 1081.9L738.451 1075.75L754.511 1127.48Z" fill="#9F616A"/>
<path d="M761.968 1139.42L718.723 1152.85L718.554 1152.3C717.168 1147.84 717.612 1143 719.788 1138.87C721.965 1134.73 725.695 1131.63 730.159 1130.24L730.16 1130.24L756.572 1122.04L761.968 1139.42Z" fill="#2F2E41"/>
<path d="M670.246 889.506L649.448 913.325L665.73 914.79L670.246 889.506Z" fill="#E6E6E6"/>
<path d="M662.119 920.208C662.119 920.208 654.895 923.82 653.992 940.075C653.089 956.33 656.701 998.775 656.701 998.775C656.701 998.775 653.09 1017.74 656.701 1034.9C660.313 1052.05 653.09 1114.36 657.605 1114.36C662.119 1114.36 685.598 1117.07 686.501 1114.36C687.404 1111.65 688.307 1071.01 688.307 1071.01C688.307 1071.01 695.531 1050.24 688.307 1037.6C688.307 1037.6 713.531 1081.65 729.846 1115.26C733.416 1122.62 760.548 1114.36 756.033 1106.23C751.518 1098.11 740.682 1061.08 740.682 1061.08C740.682 1061.08 732.555 1033.99 718.107 1022.25L725.332 964.459C725.332 964.459 740.683 925.629 731.654 920.211C722.626 914.793 662.119 920.208 662.119 920.208Z" fill="#2F2E41"/>
<path d="M689.209 773.015C702.176 773.015 712.688 762.504 712.688 749.537C712.688 736.57 702.176 726.059 689.209 726.059C676.243 726.059 665.731 736.57 665.731 749.537C665.731 762.504 676.243 773.015 689.209 773.015Z" fill="#A0616A"/>
<path d="M715.397 774.822L686.209 791.979C686.209 791.979 675.033 798.272 670.859 809.136C666.409 820.713 668.995 837.014 670.859 840.741C674.47 847.966 669.344 866.026 669.344 866.026L664.829 907.564C664.829 907.564 648.575 922.915 661.217 924.721C673.859 926.528 696.434 923.818 709.98 924.721C723.525 925.625 738.876 927.431 734.361 918.399C729.846 909.366 724.428 903.047 729.846 884.99C734.086 870.858 733.902 818.017 733.622 795.701C733.584 792.637 732.762 789.633 731.235 786.976C729.707 784.319 727.526 782.097 724.897 780.521L715.397 774.822Z" fill="#E5E5E5"/>
<path opacity="0.1" d="M702.307 803.267L705.016 858.351L678.762 911.517L674.31 909.823L701.4 860.157L702.307 803.267Z" fill="black"/>
<path opacity="0.1" d="M732.103 870.09V863.767L701.404 914.337L732.103 870.09Z" fill="black"/>
<path d="M672.546 727.787L668.668 726.236C668.668 726.236 676.785 717.301 688.075 718.077L684.899 714.581C684.899 714.581 692.661 711.474 699.719 719.631C703.429 723.919 707.721 728.96 710.399 734.638H714.556L712.822 738.458L718.893 742.279L712.661 741.595C713.251 744.893 713.049 748.284 712.072 751.489L712.242 754.508C712.242 754.508 705.015 743.324 705.015 741.773V745.658C705.015 745.658 701.133 742.161 701.133 739.831L699.016 742.55L697.957 738.278L684.901 742.55L687.017 739.052L678.9 740.218L682.076 735.945C682.076 735.945 672.902 740.995 672.549 745.269C672.196 749.543 667.609 754.981 667.609 754.981L665.492 751.096C665.492 751.096 662.317 733.615 672.546 727.787Z" fill="#2F2E41"/>
<path d="M687.736 938.365C688.827 937.742 689.768 936.888 690.493 935.862C691.218 934.836 691.709 933.664 691.933 932.428C692.156 931.192 692.105 929.922 691.784 928.707C691.463 927.493 690.88 926.364 690.075 925.399L705.816 899.236L689.963 899.892L677.446 924.636C675.915 926.095 674.972 928.065 674.797 930.173C674.621 932.28 675.225 934.379 676.493 936.071C677.762 937.763 679.607 938.931 681.679 939.354C683.751 939.777 685.906 939.425 687.736 938.365Z" fill="#9F616A"/>
<path d="M723.525 786.562L730.298 785.208C730.298 785.208 750.615 800.108 744.294 829.907C737.973 859.706 709.98 904.857 709.98 904.857C709.98 904.857 703.657 912.985 701.852 914.79C700.048 916.596 696.434 914.79 698.241 917.5C700.047 920.209 695.531 922.015 695.531 922.015C695.531 922.015 675.665 922.015 677.471 914.79C679.277 907.566 709.98 856.09 709.98 856.09L705.465 808.231C705.465 808.231 701.852 784.756 723.525 786.562Z" fill="#E5E5E5"/>
<path d="M1040.8 1155H429.802C429.537 1155 429.282 1154.89 429.095 1154.71C428.907 1154.52 428.802 1154.27 428.802 1154C428.802 1153.73 428.907 1153.48 429.095 1153.29C429.282 1153.11 429.537 1153 429.802 1153H1040.8C1041.07 1153 1041.32 1153.11 1041.51 1153.29C1041.7 1153.48 1041.8 1153.73 1041.8 1154C1041.8 1154.27 1041.7 1154.52 1041.51 1154.71C1041.32 1154.89 1041.07 1155 1040.8 1155Z" fill="#CACACA"/>
<path d="M291.107 738.77V739.114H281.678C280.231 739.114 278.843 739.689 277.82 740.712C276.796 741.736 276.221 743.124 276.221 744.571V764.547C276.221 765.994 276.796 767.382 277.82 768.405C278.843 769.429 280.231 770.004 281.678 770.004H333.404C334.851 770.004 336.239 769.429 337.263 768.405C338.286 767.382 338.861 765.994 338.861 764.547V744.571C338.861 743.124 338.286 741.736 337.263 740.712C336.239 739.689 334.851 739.114 333.404 739.114H297.818V738.77L291.107 738.77Z" fill="#3F3D56"/>
<path d="M428.208 821.738C428.427 851.218 409.591 846.759 386.625 846.759C363.66 846.759 347.045 851.15 345.043 821.738C341.861 775 354.137 740 386.625 740C420.233 740 427.861 775 428.208 821.738Z" fill="#2F2E41"/>
<path d="M302.431 759.208C303.173 760.71 303.577 762.356 303.614 764.03C303.651 765.704 303.321 767.367 302.646 768.899C301.972 770.432 300.969 771.799 299.709 772.902C298.449 774.006 296.963 774.82 295.354 775.286L293.259 815.943L276.221 803.403L280.823 766.717C280.218 763.963 280.644 761.083 282.02 758.622C283.397 756.161 285.628 754.291 288.292 753.365C290.955 752.439 293.866 752.523 296.472 753.6C299.078 754.677 301.198 756.673 302.431 759.208Z" fill="#A0616A"/>
<path d="M456.074 988.977C456.999 987.58 457.606 985.998 457.853 984.341C458.099 982.685 457.98 980.994 457.503 979.389C457.026 977.784 456.203 976.302 455.091 975.049C453.98 973.797 452.607 972.803 451.07 972.138L454.09 931.539L435.614 941.843L435.578 978.817C434.632 981.473 434.694 984.384 435.751 986.998C436.808 989.612 438.787 991.748 441.313 993C443.84 994.253 446.738 994.535 449.458 993.793C452.179 993.052 454.533 991.338 456.074 988.977Z" fill="#A0616A"/>
<path d="M370.985 1184.41L384.952 1184.41L391.596 1130.54L370.982 1130.54L370.985 1184.41Z" fill="#A0616A"/>
<path d="M367.422 1179.85L394.928 1179.85H394.929C397.231 1179.85 399.51 1180.3 401.637 1181.18C403.764 1182.06 405.696 1183.35 407.324 1184.98C408.952 1186.61 410.243 1188.54 411.124 1190.67C412.005 1192.8 412.458 1195.07 412.458 1197.38V1197.95L367.423 1197.95L367.422 1179.85Z" fill="#2F2E41"/>
<path d="M459.846 1184.41L473.813 1184.41L480.458 1130.54L459.844 1130.54L459.846 1184.41Z" fill="#A0616A"/>
<path d="M456.284 1179.85L483.79 1179.85H483.791C486.093 1179.85 488.372 1180.3 490.499 1181.18C492.626 1182.06 494.558 1183.35 496.186 1184.98C497.813 1186.61 499.105 1188.54 499.985 1190.67C500.866 1192.8 501.32 1195.07 501.32 1197.38V1197.95L456.284 1197.95L456.284 1179.85Z" fill="#2F2E41"/>
<path d="M451.874 966.608L451.267 966.498C446.18 965.577 441.031 964.645 436.504 963.672L436.056 963.575L436.054 963.117C435.976 942.467 435.898 921.82 435.784 900.986C424.971 879.191 420.425 854.821 422.653 830.593L422.679 830.337L422.889 830.187C424.86 828.818 427.159 827.999 429.551 827.814C431.943 827.629 434.341 828.085 436.499 829.134C438.61 830.288 440.414 831.93 441.761 833.922C443.109 835.915 443.96 838.201 444.245 840.589C448.362 863.027 452.624 886.263 457.378 909.159L457.395 909.243L457.387 909.328C455.626 928.001 453.805 947.311 451.936 965.994L451.874 966.608Z" fill="#F9A826"/>
<path d="M442.769 1165.21L442.658 1164.68C436.124 1133.78 429.817 1108.61 423.717 1084.27C416.407 1055.1 409.48 1027.46 402.487 991.691C403.448 1036.8 405.678 1069.2 408.242 1106.45C409.4 1123.27 410.597 1140.67 411.812 1160.97L411.849 1161.59L411.229 1161.57C389.37 1161.01 366.974 1159.66 345.315 1158.36L344.742 1158.32L344.781 1157.75C348.881 1097.31 350.166 1058.03 351.104 1029.36C353.084 968.852 353.388 959.552 375.926 908.347C376.78 906.404 381.877 900.665 387.48 901.539L431.823 908.44L431.9 908.831C433.152 915.133 439.361 934.258 447.955 960.728C466.326 1017.31 494.09 1102.83 502.763 1153.8L502.861 1154.38L502.281 1154.46C489.684 1156.25 480.617 1158.11 471.849 1159.92C463.554 1161.62 454.976 1163.39 443.3 1165.13L442.769 1165.21Z" fill="#2F2E41"/>
<path d="M404.23 924.435C392.395 924.437 380.697 920.33 372.311 912.334C371.001 911.572 369.892 910.506 369.08 909.225C368.267 907.945 367.774 906.489 367.642 904.978C367.427 903.594 367.517 902.18 367.907 900.835C368.296 899.49 368.975 898.246 369.896 897.191C361.675 887.24 353.186 876.954 345.06 866.48L344.836 866.191L345.096 865.695C350.412 855.537 355.909 845.035 361.189 834.657C361.556 833.752 362.161 832.964 362.939 832.374C363.718 831.785 364.641 831.417 365.611 831.308C366.454 831.149 367.32 831.163 368.158 831.35C368.995 831.537 369.785 831.893 370.48 832.396L370.49 832.144C370.711 826.89 370.932 821.637 371.159 816.657L371.183 816.125L371.715 816.113C381.866 815.889 392.362 815.657 402.673 815.046L403.065 815.023L408.179 826.43C416.484 825.623 424.841 827.319 432.175 831.3L432.513 831.481L432.474 831.861C430.417 851.465 430.864 871.252 433.805 890.743C433.645 899.642 433.474 908.739 431.668 915.989L431.615 916.2L431.435 916.323C423.375 921.672 413.903 924.496 404.23 924.435Z" fill="#F9A826"/>
<path d="M360.667 874.947L359.986 874.634C352.034 870.645 344.056 866.219 336.342 861.939L335.276 861.731C314.964 857.653 303.775 855.408 285.45 844.662L285.309 844.579L285.234 844.434C276.058 826.906 273.498 811.584 275.79 787.902L275.836 787.427L276.311 787.389C278.297 787.228 281.535 787.12 284.666 787.015C287.712 786.914 290.862 786.808 292.793 786.657L293.241 786.621L293.38 787.049C295.781 794.464 297.821 801.382 299.981 808.706C302.201 816.234 304.495 824.015 307.29 832.661C317.522 835.602 344.953 834.723 353.482 833.561C356.033 833.373 358.59 833.83 360.919 834.889C363.247 835.947 365.272 837.574 366.808 839.62L366.966 839.818L366.925 840.068C365.047 851.528 362.891 863.055 360.806 874.203L360.667 874.947Z" fill="#F9A826"/>
<path d="M410.666 797.242C418.079 783.682 413.095 766.681 399.536 759.269C385.976 751.856 368.974 756.84 361.562 770.399C354.149 783.959 359.133 800.961 372.693 808.373C386.252 815.786 403.254 810.802 410.666 797.242Z" fill="#A0616A"/>
<path d="M354.157 782.152H365.224L370.106 768.481L371.082 782.152H376.372L379.22 774.178L379.79 782.152H419.094C419.094 774.296 415.973 766.762 410.418 761.207C404.863 755.652 397.329 752.532 389.474 752.532H383.777C375.921 752.532 368.387 755.652 362.832 761.207C357.277 766.762 354.157 774.296 354.157 782.152Z" fill="#2F2E41"/>
</g>
<defs>
<clipPath id="clip0_0_1">
<rect width="863" height="748" fill="white"/>
</clipPath>
<clipPath id="clip1_0_1">
<rect width="766.802" height="500.948" fill="white" transform="translate(275 697)"/>
</clipPath>
</defs>
</svg>
