<svg width="1334" height="1044" viewBox="0 0 1334 1044" fill="none" xmlns="http://www.w3.org/2000/svg">
<rect width="1334" height="1044" fill=""/>
<g clip-path="url(#clip0_0_1)">
<path d="M360.681 595.284C360.732 601.599 363.285 607.635 367.779 612.068C372.273 616.502 378.342 618.969 384.653 618.929L793.109 616C799.419 615.952 805.452 613.398 809.881 608.9C814.31 604.402 816.772 598.328 816.727 592.013C816.682 585.699 814.132 579.661 809.639 575.227C805.147 570.793 799.078 568.326 792.767 568.368L384.312 571.297C378.001 571.348 371.968 573.902 367.538 578.4C363.108 582.897 360.642 588.969 360.681 595.284Z" fill="#F2F2F2"/>
<path d="M409.677 589.588C409.676 589.188 409.834 588.803 410.116 588.519C410.398 588.234 410.782 588.074 411.182 588.072L516.682 587.694C516.88 587.694 517.077 587.732 517.26 587.807C517.444 587.883 517.611 587.993 517.751 588.133C517.892 588.273 518.004 588.439 518.08 588.622C518.157 588.806 518.197 589.002 518.198 589.2C518.198 589.399 518.16 589.596 518.085 589.779C518.009 589.963 517.899 590.13 517.759 590.271C517.619 590.412 517.453 590.523 517.27 590.6C517.087 590.677 516.891 590.716 516.692 590.717L411.193 591.095C410.792 591.096 410.408 590.937 410.124 590.655C409.84 590.373 409.679 589.989 409.677 589.588Z" fill="#CCCCCC"/>
<path d="M409.799 603.444C409.798 603.043 409.956 602.658 410.238 602.374C410.52 602.09 410.904 601.929 411.304 601.927L682.934 600.315C683.132 600.314 683.329 600.352 683.512 600.426C683.696 600.501 683.863 600.612 684.004 600.751C684.145 600.891 684.258 601.057 684.334 601.24C684.411 601.423 684.452 601.619 684.453 601.818C684.454 602.016 684.416 602.213 684.341 602.397C684.266 602.58 684.156 602.748 684.016 602.889C683.877 603.03 683.711 603.142 683.528 603.219C683.345 603.296 683.149 603.336 682.951 603.338H682.944L411.315 604.95C410.914 604.951 410.53 604.793 410.246 604.511C409.962 604.228 409.801 603.845 409.799 603.444Z" fill="#CCCCCC"/>
<path d="M360.681 504.628C360.732 510.942 363.285 516.979 367.779 521.412C372.273 525.845 378.342 528.313 384.653 528.273L793.109 525.344C799.419 525.295 805.452 522.741 809.881 518.243C814.31 513.745 816.772 507.671 816.727 501.357C816.682 495.043 814.132 489.005 809.639 484.571C805.147 480.137 799.078 477.67 792.767 477.712L384.312 480.641C378.001 480.692 371.968 483.246 367.538 487.743C363.108 492.24 360.642 498.313 360.681 504.628Z" fill="#F2F2F2"/>
<path d="M405.192 512.787C405.191 512.387 405.349 512.002 405.631 511.718C405.913 511.433 406.297 511.273 406.697 511.271L678.327 509.658C678.525 509.658 678.722 509.696 678.905 509.771C679.089 509.847 679.256 509.957 679.397 510.097C679.537 510.237 679.649 510.403 679.726 510.586C679.802 510.769 679.842 510.966 679.843 511.164C679.843 511.363 679.805 511.559 679.73 511.743C679.655 511.927 679.544 512.094 679.404 512.235C679.264 512.375 679.098 512.487 678.915 512.564C678.732 512.641 678.536 512.68 678.338 512.681L406.708 514.294C406.307 514.295 405.923 514.137 405.639 513.854C405.355 513.572 405.194 513.188 405.192 512.787Z" fill="#CCCCCC"/>
<path d="M405.192 497.422C405.191 497.021 405.349 496.637 405.631 496.352C405.913 496.068 406.297 495.907 406.697 495.905L678.327 494.293C678.525 494.292 678.722 494.331 678.905 494.406C679.089 494.481 679.256 494.592 679.397 494.732C679.537 494.872 679.649 495.038 679.726 495.221C679.802 495.404 679.842 495.6 679.843 495.799C679.843 495.997 679.805 496.194 679.73 496.378C679.655 496.561 679.544 496.728 679.404 496.869C679.264 497.01 679.098 497.122 678.915 497.199C678.732 497.275 678.536 497.315 678.338 497.316L406.708 498.928C406.307 498.929 405.923 498.771 405.639 498.489C405.355 498.206 405.194 497.823 405.192 497.422Z" fill="#CCCCCC"/>
<path d="M480.224 700.368L71.7682 697.438C65.4578 697.396 59.3891 699.863 54.8961 704.297C50.4032 708.731 47.8538 714.769 47.8086 721.084C47.7634 727.398 50.2259 733.472 54.6549 737.97C59.0839 742.468 65.1167 745.022 71.427 745.07L479.883 747.999C486.193 748.041 492.262 745.574 496.755 741.14C501.248 736.706 503.797 730.668 503.842 724.354C503.888 718.04 501.425 711.966 496.996 707.468C492.567 702.97 486.534 700.416 480.224 700.368Z" fill="#F2F2F2"/>
<path d="M199.971 720.165L94.4712 719.787C94.2728 719.787 94.0765 719.747 93.8936 719.67C93.7106 719.593 93.5445 719.482 93.4047 719.341C93.2649 719.2 93.1543 719.033 93.079 718.849C93.0037 718.666 92.9654 718.469 92.9661 718.27C92.9668 718.072 93.0066 717.876 93.0831 717.692C93.1597 717.509 93.2715 717.343 93.4123 717.203C93.553 717.063 93.72 716.953 93.9035 716.877C94.087 716.802 94.2836 716.764 94.4819 716.764L199.982 717.142C200.18 717.142 200.377 717.181 200.56 717.258C200.744 717.334 200.911 717.446 201.051 717.587C201.191 717.728 201.302 717.895 201.377 718.079C201.453 718.263 201.492 718.46 201.491 718.659C201.49 718.857 201.45 719.054 201.373 719.238C201.297 719.421 201.184 719.587 201.043 719.727C200.902 719.867 200.735 719.978 200.551 720.053C200.367 720.128 200.169 720.166 199.971 720.165Z" fill="#CCCCCC"/>
<path d="M367.228 734.02L95.5982 732.408C95.3998 732.407 95.2035 732.367 95.0205 732.29C94.8376 732.214 94.6714 732.102 94.5317 731.961C94.3919 731.82 94.2812 731.653 94.206 731.47C94.1307 731.286 94.0924 731.089 94.0931 730.891C94.0938 730.692 94.1335 730.496 94.2101 730.313C94.2867 730.13 94.3985 729.964 94.5393 729.824C94.68 729.684 94.8469 729.573 95.0305 729.498C95.214 729.422 95.4105 729.384 95.6089 729.385L367.239 730.997C367.437 730.998 367.633 731.038 367.816 731.114C367.999 731.191 368.165 731.303 368.305 731.444C368.445 731.585 368.555 731.752 368.631 731.935C368.706 732.119 368.744 732.316 368.744 732.514C368.743 732.713 368.703 732.909 368.627 733.092C368.55 733.275 368.438 733.441 368.297 733.581C368.157 733.721 367.99 733.832 367.806 733.907C367.623 733.982 367.426 734.021 367.228 734.02Z" fill="#CCCCCC"/>
<path d="M852.251 513.458C858.187 513.458 863 508.642 863 502.702C863 496.762 858.187 491.946 852.251 491.946C846.314 491.946 841.502 496.762 841.502 502.702C841.502 508.642 846.314 513.458 852.251 513.458Z" fill="#F2F2F2"/>
<path d="M852.251 604.114C858.187 604.114 863 599.299 863 593.358C863 587.418 858.187 582.603 852.251 582.603C846.314 582.603 841.502 587.418 841.502 593.358C841.502 599.299 846.314 604.114 852.251 604.114Z" fill="#F2F2F2"/>
<path d="M369.658 661.455L74.1407 705.751C71.7326 706.114 69.2767 705.998 66.9133 705.411C64.5499 704.823 62.3253 703.776 60.3667 702.328C58.4081 700.879 56.7539 699.059 55.4986 696.971C54.2432 694.883 53.4114 692.568 53.0507 690.158C52.6899 687.748 52.8072 685.291 53.396 682.927C53.9847 680.562 55.0334 678.337 56.4819 676.378C57.9305 674.419 59.7506 672.765 61.8382 671.511C63.9258 670.256 66.2401 669.425 68.6487 669.066L364.166 624.77C366.574 624.407 369.03 624.523 371.393 625.11C373.757 625.698 375.981 626.745 377.94 628.193C379.899 629.642 381.553 631.462 382.808 633.55C384.064 635.638 384.895 637.953 385.256 640.363C385.617 642.772 385.5 645.23 384.911 647.594C384.322 649.959 383.273 652.184 381.825 654.143C380.376 656.102 378.556 657.756 376.469 659.01C374.381 660.265 372.067 661.095 369.658 661.455Z" fill="#F9A826"/>
<path d="M164.045 672.034L87.7587 683.749C87.469 683.794 87.1736 683.721 86.9373 683.548C86.701 683.374 86.5433 683.114 86.4988 682.824C86.4544 682.534 86.5268 682.239 86.7002 682.002C86.8736 681.766 87.1338 681.608 87.4234 681.563L163.709 669.848C163.999 669.804 164.294 669.876 164.531 670.05C164.767 670.223 164.925 670.484 164.969 670.773C165.014 671.063 164.941 671.359 164.768 671.595C164.594 671.832 164.334 671.99 164.045 672.034Z" fill="white"/>
<path d="M286.491 663.041L90.0054 692.742C89.7157 692.786 89.4202 692.714 89.1839 692.54C88.9476 692.367 88.79 692.106 88.7455 691.817C88.7011 691.527 88.7735 691.231 88.9469 690.995C89.1203 690.758 89.3804 690.6 89.6701 690.556L286.156 660.856C286.3 660.833 286.446 660.839 286.587 660.874C286.729 660.908 286.862 660.97 286.979 661.056C287.096 661.142 287.195 661.25 287.271 661.374C287.346 661.499 287.396 661.637 287.418 661.78C287.441 661.924 287.434 662.071 287.399 662.212C287.365 662.353 287.302 662.486 287.216 662.603C287.13 662.721 287.022 662.82 286.897 662.895C286.773 662.97 286.635 663.02 286.491 663.041Z" fill="white"/>
<path d="M301.009 639.159C299.863 639.093 298.745 638.778 297.733 638.237C296.72 637.695 295.837 636.94 295.145 636.024C294.453 635.108 293.968 634.052 293.723 632.929C293.479 631.807 293.481 630.645 293.73 629.523L261.61 606.505L265.788 596.05L303.738 623.668C305.594 624.227 307.179 625.448 308.195 627.099C309.211 628.75 309.587 630.717 309.251 632.626C308.914 634.536 307.889 636.256 306.371 637.46C304.852 638.664 302.944 639.269 301.009 639.159Z" fill="#A0616A"/>
<path d="M214.719 510.463L195.418 517.531C194.57 517.841 193.792 518.316 193.127 518.928C192.462 519.539 191.924 520.276 191.544 521.096C191.164 521.915 190.949 522.802 190.911 523.705C190.873 524.608 191.013 525.509 191.324 526.358C191.399 526.565 191.485 526.769 191.58 526.968L217.896 581.898L281.301 627.625L291.019 612.131L242.989 568.368L214.719 510.463Z" fill="#3F3D56"/>
<path d="M206.783 624.063C184.787 622.018 163.241 616.937 141.212 615.228L150.053 592.713L195.235 599.446L206.783 624.063Z" fill="#A0616A"/>
<path d="M132.158 629.358L131.967 631.044L130.394 644.589L128.552 644.701L128.451 661.663C129.03 663.342 129.027 665.167 128.442 666.843C127.857 668.52 126.724 669.95 125.227 670.903C124.978 671.063 124.719 671.206 124.452 671.33C123.331 662.526 123.669 653.598 125.451 644.904C126.167 641.669 127.221 638.519 128.597 635.506C129.29 634.015 130.078 632.569 130.956 631.179C131.327 630.56 131.731 629.953 132.158 629.358Z" fill="#2F2E41"/>
<path d="M132.506 626.435L132.158 629.346V629.358L131.967 631.044C131.473 631.111 131.124 631.156 130.956 631.179C130.915 631.185 130.874 631.189 130.832 631.19L132.506 626.435Z" fill="#F9A826"/>
<path d="M212.49 570.614L208.693 592.713C208.693 592.713 217.915 613.508 211.568 618.69C210.792 619.387 210.195 620.26 209.827 621.237C209.46 622.213 209.332 623.263 209.456 624.299C208.558 624.221 207.67 624.142 206.783 624.063C184.787 622.018 163.241 616.937 141.212 615.228C139.651 615.105 138.1 614.992 136.539 614.913L143.324 595.602L138.741 578.438L133.989 560.632L132.967 531.317C132.942 530.762 132.946 530.207 132.978 529.653C132.978 529.361 132.989 529.08 133.012 528.788C133.259 525.085 134.331 521.486 136.151 518.253C137.97 515.02 140.491 512.236 143.526 510.106C143.535 510.104 143.543 510.1 143.549 510.094C144.584 509.368 145.673 508.722 146.807 508.161C148.024 507.557 149.291 507.057 150.592 506.666L151.895 506.273L158.95 494.852L167.128 493.998L170.161 493.683L189.921 491.626L194.179 497.156L194.954 498.168L197.953 502.057L207.3 507.037C209.343 508.121 211.21 509.508 212.838 511.151C216.659 514.974 219.031 520.01 219.544 525.393C219.668 526.633 219.691 527.881 219.612 529.125L212.49 570.614Z" fill="#3F3D56"/>
<path d="M116.305 471.088C116.102 479.824 119.365 488.284 124.052 495.714C125.618 491.399 127.811 487.34 130.56 483.665C129.243 491.806 130.645 500.154 134.549 507.418C134.686 507.516 134.829 507.608 134.976 507.692C136.85 508.909 138.976 509.683 141.194 509.955C143.411 510.227 145.661 509.99 147.774 509.262C143.601 504.537 141.098 498.568 140.653 492.278C140.207 485.988 141.842 479.726 145.307 474.458C147.334 471.526 149.955 468.933 151.211 465.597C153.193 460.274 151.288 454.413 150.085 448.863C148.961 443.697 148.765 437.551 152.228 433.765C151.858 433.236 151.354 432.815 150.768 432.545C150.182 432.275 149.535 432.166 148.892 432.228C147.848 432.493 146.881 433 146.068 433.707C145.256 434.414 144.62 435.302 144.213 436.3C143.414 438.299 142.401 440.205 141.19 441.985C138.636 445.077 134.285 445.808 130.618 447.438C121.739 451.395 116.518 461.367 116.305 471.088Z" fill="#2F2E41"/>
<path d="M191.047 466.093C190.54 464.316 194.037 475.179 192.35 475.375C184.663 476.257 174.111 480.851 168.758 482.994C168.517 482.966 168.276 482.938 168.042 482.903C167.467 482.84 166.907 482.749 166.354 482.643C153.888 480.283 149.095 461.123 149.095 460.947C149.095 460.086 151.161 436.428 154.415 436.078C155.27 435.985 156.129 435.938 156.989 435.937H165.066C166.737 435.577 168.431 435.331 170.136 435.202H170.15C186.409 433.963 199.23 443.879 198.031 455.945C198.024 455.959 198.01 455.973 198.003 455.987C197.655 456.506 197.351 456.996 197.081 457.465C196.819 457.906 196.599 458.326 196.407 458.726C194.925 461.807 198.735 465.684 196.209 466.408C192.849 467.371 205.045 499.008 191.747 499.008C198.215 500.848 192.447 470.995 191.047 466.093Z" fill="#2F2E41"/>
<path d="M176.533 484.656C187.094 484.656 195.655 476.09 195.655 465.522C195.655 454.955 187.094 446.388 176.533 446.388C165.972 446.388 157.411 454.955 157.411 465.522C157.411 476.09 165.972 484.656 176.533 484.656Z" fill="#A0616A"/>
<path d="M198.031 456.989C197.712 457.157 197.4 457.311 197.081 457.465C196.748 457.626 196.415 457.787 196.081 457.934C189.678 460.841 184.466 461.163 181.304 456.989C181.219 454.793 180.726 452.632 179.85 450.616C180.005 452.869 179.412 455.109 178.163 456.989H171.795C165.236 461.345 161.868 461.8 166.42 476.101C167.69 480.085 172.736 503.273 170.751 506.711C170.177 506.648 164.066 481.251 163.513 481.146C151.047 478.786 143.127 458.236 144.141 457.073C144.136 453.767 144.895 450.505 146.36 447.542C148.213 443.788 151.102 440.643 154.685 438.48C156.82 437.444 159.047 436.607 161.336 435.98C161.393 435.966 161.442 435.952 161.499 435.938C162.201 435.749 162.917 435.574 163.634 435.426C165.113 435.114 166.609 434.887 168.115 434.747C168.221 434.74 168.328 434.733 168.427 434.733C169.028 434.735 169.618 434.897 170.136 435.202C170.143 435.202 170.143 435.209 170.15 435.209C170.52 435.426 170.843 435.714 171.1 436.057C171.553 436.634 171.798 437.347 171.795 438.081H178.886C179.148 438.081 179.411 438.088 179.673 438.102C184.406 438.263 188.907 440.187 192.298 443.495C195.688 446.803 197.722 451.258 198.003 455.988C198.024 456.324 198.031 456.653 198.031 456.989Z" fill="#2F2E41"/>
<path d="M156.222 450.872C163.179 450.872 168.82 445.229 168.82 438.267C168.82 431.305 163.179 425.661 156.222 425.661C149.264 425.661 143.624 431.305 143.624 438.267C143.624 445.229 149.264 450.872 156.222 450.872Z" fill="#2F2E41"/>
<path d="M125.227 670.903C124.978 671.063 124.719 671.206 124.452 671.33C123.52 671.79 122.507 672.061 121.47 672.129C120.433 672.196 119.394 672.059 118.41 671.725C117.427 671.39 116.518 670.865 115.738 670.179C114.957 669.494 114.319 668.661 113.86 667.729C113.4 666.796 113.129 665.782 113.062 664.745C112.994 663.708 113.131 662.668 113.466 661.683C113.8 660.699 114.325 659.79 115.01 659.009C115.695 658.228 116.527 657.589 117.459 657.13C117.594 657.064 117.73 657.001 117.869 656.942L117.846 645.376L117.824 631.763L117.801 617.409L128.72 614.711L128.597 635.506L128.552 644.701L128.451 661.663C129.03 663.342 129.027 665.167 128.442 666.843C127.857 668.52 126.724 669.95 125.227 670.903Z" fill="#A0616A"/>
<path d="M168.386 523.268L167.252 525.393L138.741 578.437L137.887 580.022L133.854 614.79L132.506 626.435L132.158 629.346V629.358L131.967 631.044L130.394 644.589L128.552 644.701L125.451 644.903L117.846 645.376L112.151 645.735L112.162 636.619L112.263 567.534L132.978 529.653L133.483 528.72L141.482 514.096C142.36 512.492 143.839 511.303 145.593 510.791C147.348 510.278 149.234 510.484 150.836 511.363C151.026 511.467 151.211 511.58 151.39 511.701L168.386 523.268Z" fill="#3F3D56"/>
<path d="M10.7491 727.038C16.6857 727.038 21.4982 722.223 21.4982 716.282C21.4982 710.342 16.6857 705.526 10.7491 705.526C4.81254 705.526 0 710.342 0 716.282C0 722.223 4.81254 727.038 10.7491 727.038Z" fill="#F2F2F2"/>
<path d="M747.721 326.442C747.721 326.442 743.823 367.729 741.666 398.292V398.315C741.497 400.776 741.34 403.155 741.194 405.452L740.048 405.554C739.262 405.632 738.487 405.722 737.7 405.801C725.141 407.138 712.705 409.353 700.225 411.275C699.023 411.455 697.821 411.635 696.619 411.815C684.17 413.849 671.577 414.871 658.964 414.872H658.728C658.829 413.298 658.986 411.241 659.166 408.881C660.222 395.516 662.356 372.349 662.356 372.349L664.345 358.938L670.849 315.01L670.894 314.673L670.95 314.291L671.264 314.212L684.925 310.66L692.271 308.76L696.54 302.87L702.224 295.024L725.86 297.935L727.59 304.388L730.792 316.28L730.893 316.662L743.295 323.868L747.721 326.442Z" fill="#E6E6E6"/>
<path d="M713.982 292.483C727.816 292.483 739.031 281.262 739.031 267.419C739.031 253.577 727.816 242.355 713.982 242.355C700.148 242.355 688.934 253.577 688.934 267.419C688.934 281.262 700.148 292.483 713.982 292.483Z" fill="#FFB6B6"/>
<path d="M687.736 252.251C689.935 254.029 689.432 262.678 691.883 261.269C694.333 259.859 694.843 257.334 697.665 257.308C699.966 257.435 702.136 258.418 703.75 260.063C704.05 260.335 704.336 260.62 704.614 260.901C704.867 260.812 705.118 260.731 705.382 260.665C707.361 260.182 709.45 260.476 711.219 261.488C709.586 261.604 708.03 262.232 706.773 263.281C707.312 263.885 707.858 264.493 708.433 265.054C713.23 269.758 723.066 264.749 729.68 263.618C724.171 269.637 725.257 272.996 726.628 281.04L726.633 281.48C726.915 279.625 732.853 279.717 731.874 282.179C730.644 284.61 729.106 286.873 727.297 288.91C735.388 283.302 741.919 275.572 743.362 266.234C743.891 264.319 743.999 262.313 743.677 260.353C743.44 259.385 742.889 258.523 742.11 257.902C741.331 257.28 740.368 256.935 739.373 256.919C740.274 254.054 740.382 250.999 739.687 248.077C738.991 245.156 737.518 242.478 735.423 240.328C733.328 238.178 730.689 236.636 727.789 235.866C724.888 235.096 721.832 235.127 718.948 235.956C716.317 236.892 713.75 238.001 711.265 239.275C708.756 240.553 705.917 241.035 703.127 240.654C701.39 240.294 699.63 239.394 697.926 239.904C695.953 240.496 695.104 242.582 694.313 244.595C695.798 245.138 697.087 246.111 698.017 247.391C696.482 246.824 694.807 246.756 693.231 247.197C693.202 247.202 693.174 247.209 693.146 247.22C691.359 250.424 691.256 251.21 687.736 252.251Z" fill="#2F2E41"/>
<path d="M700.225 411.275C699.023 411.455 697.821 411.635 696.619 411.815C684.17 413.849 671.577 414.871 658.964 414.872C659.053 412.882 659.11 410.882 659.166 408.881C659.244 406.082 659.301 403.272 659.357 400.461C659.615 387.726 659.873 374.994 660.132 362.266C660.143 361.659 660.154 361.04 660.165 360.433C660.424 347.563 660.772 334.265 666.108 322.541C667.327 319.87 668.846 317.348 670.635 315.021C670.725 314.897 670.804 314.785 670.894 314.673C671.017 314.515 671.141 314.358 671.264 314.212C672.697 312.424 674.292 310.772 676.027 309.277C678.71 306.805 681.857 304.892 685.287 303.651C688.716 302.41 692.359 301.866 696.001 302.049L696.54 302.87L697.259 303.983C696.787 307.501 696.304 311.031 695.855 314.56C693.911 329.859 692.518 345.247 694.08 360.557C695.405 373.428 698.809 386.028 699.888 398.91C699.932 399.337 699.966 399.776 700 400.203C700.266 403.887 700.341 407.583 700.225 411.275Z" fill="#3F3D56"/>
<path d="M740.045 405.546C740.598 403.149 741.12 400.737 741.673 398.309V398.294C743.808 388.705 745.947 379.117 748.092 369.529C750.902 356.96 753.712 343.961 751.301 331.315C751.056 330.014 750.744 328.727 750.365 327.459C750.242 327.044 750.104 326.629 749.965 326.214C748.997 323.301 747.682 320.515 746.05 317.917C741.781 311.094 735.393 305.793 727.592 304.395C727.446 304.351 727.298 304.32 727.147 304.303L725.442 305.885C725.089 309.158 724.751 312.462 724.382 315.75C722.632 331.315 720.344 346.865 715.108 361.585C710.624 374.185 704.051 385.97 699.951 398.693C699.936 398.77 699.905 398.847 699.89 398.908C698.537 403.14 697.445 407.45 696.619 411.815C697.817 411.631 699.03 411.462 700.228 411.277C712.712 409.357 725.135 407.144 737.696 405.807L740.045 405.546Z" fill="#3F3D56"/>
<path d="M764.445 262.146L763.727 255.244L763.558 253.648L763.3 251.085L757.75 197.815C758.209 196.279 758.146 194.633 757.571 193.136C756.996 191.639 755.941 190.375 754.571 189.542C752.989 188.598 751.097 188.321 749.31 188.772C747.524 189.223 745.99 190.365 745.045 191.948C745.011 192.004 744.989 192.06 744.955 192.116C744.012 193.762 743.747 195.712 744.217 197.55C744.686 199.389 745.854 200.972 747.471 201.963C747.806 202.155 748.156 202.32 748.516 202.458L748.471 203.953L748.337 208.64L748.235 212.181L748.022 219.229L747.943 221.96L747.685 230.818L747.438 239.361L747.134 249.713L746.899 257.672L749.763 258.402L764.445 262.146Z" fill="#FFB6B6"/>
<path d="M769.995 273.487C769.875 272.563 769.653 271.654 769.332 270.778C767.883 268.261 766.996 271.779 767.793 265.034C768.434 259.56 764.592 260.246 765.973 259.077C768.254 257.144 765.108 256.289 763.727 255.244C763.109 254.783 762.85 254.288 763.558 253.648C763.89 253.358 764.261 253.116 764.659 252.928C766.164 252.141 765.299 251.546 763.3 251.085C758.802 250.335 754.255 249.91 749.696 249.815C748.595 249.758 747.696 249.736 747.135 249.713C746.719 249.702 746.483 249.702 746.483 249.702C745.699 250.446 745.209 251.448 745.101 252.523C744.769 254.808 744.945 257.138 745.618 259.347C746.08 260.88 746.693 262.364 747.449 263.775C747.738 264.305 747.87 264.905 747.831 265.507V265.518C747.751 265.873 747.594 266.206 747.37 266.494C747.147 266.781 746.863 267.016 746.539 267.181C745.022 268.193 745.865 270.317 747.045 272.318C748.047 273.659 748.899 275.107 749.583 276.635C749.583 278.017 740.237 307.4 740.237 307.4L743.674 351.767C746.224 353.735 749.441 354.626 752.639 354.252C755.306 353.803 757.772 352.547 759.705 350.655C762.425 347.994 764.636 344.859 766.232 341.403C775.308 323.16 771.927 284.256 769.995 273.487Z" fill="#3F3D56"/>
<path d="M599.553 200.319C601.258 201.151 602.57 202.615 603.213 204.401C603.855 206.186 603.775 208.152 602.991 209.879C602.826 210.228 602.632 210.562 602.412 210.879L634.734 255.653L622.718 269.215L592.162 212.23C590.921 211.215 590.05 209.818 589.685 208.255C589.32 206.693 589.483 205.054 590.147 203.594C590.927 201.924 592.338 200.631 594.069 200.002C595.801 199.372 597.712 199.456 599.381 200.236C599.439 200.263 599.496 200.291 599.553 200.319Z" fill="#FFB6B6"/>
<path d="M690.158 331.601C690.158 331.601 685.837 347.065 665.672 335.703C645.506 324.341 623.697 281.914 623.479 279.007C623.262 276.099 625.971 278.516 621.532 273.387C617.922 269.216 621.487 267.623 619.69 267.43C614.951 266.921 623.179 260.911 617.327 261.6C611.476 262.29 630.556 248.72 630.556 248.72C630.556 248.72 634.033 248.803 636.687 256.22C638.177 260.385 636.769 263.235 640.322 263.219C643.874 263.203 642.353 271.643 643.104 272.758C643.856 273.873 668.099 292.957 668.099 292.957L690.158 331.601Z" fill="#3F3D56"/>
<path d="M663.33 233.806C727.853 233.806 780.159 181.467 780.159 116.903C780.159 52.3393 727.853 0 663.33 0C598.806 0 546.5 52.3393 546.5 116.903C546.5 181.467 598.806 233.806 663.33 233.806Z" fill="#F9A826"/>
<path d="M603.965 90.8879C605.18 93.2031 606.108 95.6581 606.729 98.1983C608.313 104.877 607.201 110.939 603.557 113.782C603.193 114.077 602.799 114.335 602.383 114.552C597.825 116.938 591.535 114.42 586.495 108.787C584.764 106.828 583.278 104.664 582.071 102.345C580.862 100.056 579.942 97.6253 579.329 95.1098C577.553 87.7332 579.067 81.0802 583.639 78.6877C589.694 75.519 598.792 80.9891 603.965 90.8879Z" fill="white"/>
<path d="M602.03 102.304C603.881 105.829 604.422 109.896 603.557 113.782C603.193 114.077 602.799 114.335 602.383 114.552C597.825 116.938 591.535 114.42 586.494 108.787C584.763 106.828 583.278 104.664 582.071 102.345C580.862 100.055 579.942 97.6253 579.329 95.1097C583.295 93.0628 587.909 92.6705 592.163 94.0188C596.418 95.3671 599.965 98.3461 602.03 102.304Z" fill="#3F3D56"/>
<path d="M649.319 67.1547C654.286 76.6587 653.832 86.7974 648.437 90.4009C648.212 90.5537 647.978 90.6933 647.737 90.8191C641.695 93.9806 632.598 88.5106 627.424 78.6119C626.218 76.3269 625.3 73.9012 624.69 71.3903C622.907 64.0001 624.421 57.3471 628.993 54.9546C635.048 51.7859 644.145 57.2559 649.319 67.1547Z" fill="white"/>
<path d="M646.934 78.8064C648.805 82.3672 649.337 86.4807 648.437 90.4009C648.212 90.5537 647.978 90.6933 647.737 90.8191C641.695 93.9807 632.598 88.5107 627.424 78.6119C626.218 76.3269 625.3 73.9012 624.69 71.3903C628.635 69.5015 633.16 69.219 637.309 70.6024C641.459 71.9859 644.91 74.9271 646.934 78.8064Z" fill="#3F3D56"/>
<path d="M598.236 158.043C611.992 184.363 638.678 197.57 657.842 187.541C677.005 177.513 681.39 148.048 667.634 121.728C652.523 143.773 629.638 156.185 598.236 158.043Z" fill="white"/>
<path opacity="0.2" d="M766.998 62.9017C755.881 41.6313 738.492 24.2992 717.191 13.2584C695.89 2.21757 671.711 -1.99709 647.934 1.18657C676.008 4.8832 701.785 18.6557 720.473 39.9431C739.16 61.2306 749.486 88.5844 749.53 116.918C749.574 145.252 739.334 172.638 720.713 193.984C702.092 215.33 676.358 229.183 648.295 232.967C669.499 235.754 691.061 232.663 710.629 224.03C730.198 215.397 747.022 201.554 759.268 184.01C771.513 166.466 778.71 145.895 780.073 124.539C781.436 103.183 776.914 81.8621 766.998 62.9017Z" fill="black"/>
</g>
<g clip-path="url(#clip1_0_1)">
<path d="M1192.54 374H1041.17C1024.76 374 1011.41 360.64 1011.41 344.218V54.7821C1011.41 38.3603 1024.76 25 1041.17 25H1192.54C1208.95 25 1222.3 38.3603 1222.3 54.7821V344.218C1222.3 360.64 1208.95 374 1192.54 374Z" fill="#F2F2F2"/>
<path d="M1222.3 131.464C1221.6 131.464 1221.04 132.029 1221.04 132.724V173.041C1221.04 173.736 1221.6 174.301 1222.3 174.301C1222.99 174.301 1223.56 173.736 1223.56 173.041V132.724C1223.56 132.029 1222.99 131.464 1222.3 131.464Z" fill="#F2F2F2"/>
<path d="M1219.46 54.7823V344.213C1219.46 358.507 1208.35 370.199 1194.29 371.106H1194.28C1194.08 371.118 1193.87 371.131 1193.65 371.137C1193.28 371.156 1192.91 371.163 1192.53 371.163C1192.53 371.163 1191.15 371.062 1188.62 370.873C1186.06 370.684 1182.34 370.4 1177.7 370.029C1176.31 369.921 1174.84 369.802 1173.3 369.676C1170.21 369.424 1166.82 369.147 1163.19 368.832C1161.74 368.712 1160.25 368.58 1158.72 368.447C1150.9 367.773 1142.14 366.986 1132.91 366.091C1131.34 365.946 1129.77 365.795 1128.18 365.638C1127.77 365.594 1127.35 365.556 1126.93 365.512C1120.34 364.863 1113.57 364.164 1106.78 363.42C1106.36 363.376 1105.94 363.332 1105.52 363.288C1093.82 361.997 1082.07 360.592 1071.08 359.08C1062.63 357.921 1054.62 356.699 1047.43 355.432C1045.09 355.017 1042.84 354.601 1040.68 354.179C1040.26 354.097 1039.84 354.015 1039.42 353.927C1024.21 350.878 1014.24 347.589 1014.24 344.213V54.7823C1014.24 39.8963 1026.3 27.8325 1041.17 27.8325H1057.25C1059.82 27.8325 1061.88 29.8358 1062.11 32.3997C1062.12 32.5698 1062.14 32.7399 1062.17 32.91C1062.64 35.4866 1065 37.2819 1067.62 37.2819H1166.09C1168.71 37.2819 1171.07 35.4865 1171.53 32.91C1171.56 32.7399 1171.58 32.5698 1171.6 32.3997C1171.82 29.8358 1173.89 27.8325 1176.46 27.8325H1192.53C1207.41 27.8325 1219.46 39.8963 1219.46 54.7823Z" fill="white"/>
<path d="M1010.78 101.226C1010.09 101.226 1009.52 101.791 1009.52 102.486V112.565C1009.52 113.26 1010.09 113.825 1010.78 113.825C1011.48 113.825 1012.04 113.26 1012.04 112.565V102.486C1012.04 101.791 1011.48 101.226 1010.78 101.226Z" fill="#F2F2F2"/>
<path d="M1010.78 131.464C1010.09 131.464 1009.52 132.029 1009.52 132.724V152.253C1009.52 152.948 1010.09 153.513 1010.78 153.513C1011.48 153.513 1012.04 152.948 1012.04 152.253V132.724C1012.04 132.029 1011.48 131.464 1010.78 131.464Z" fill="#F2F2F2"/>
<path d="M1010.78 159.182C1010.09 159.182 1009.52 159.747 1009.52 160.442V179.971C1009.52 180.666 1010.09 181.231 1010.78 181.231C1011.48 181.231 1012.04 180.666 1012.04 179.971V160.442C1012.04 159.747 1011.48 159.182 1010.78 159.182Z" fill="#F2F2F2"/>
<path d="M1055.79 32.2447H1033.76C1033.06 32.2447 1032.5 32.8088 1032.5 33.5046V34.1346C1032.5 34.8304 1033.06 35.3945 1033.76 35.3945H1055.79C1056.49 35.3945 1057.05 34.8304 1057.05 34.1346V33.5046C1057.05 32.8088 1056.49 32.2447 1055.79 32.2447Z" fill="#F2F2F2"/>
<path d="M1180.43 35.3945C1181.82 35.3945 1182.95 34.2663 1182.95 32.8746C1182.95 31.483 1181.82 30.3548 1180.43 30.3548C1179.04 30.3548 1177.92 31.483 1177.92 32.8746C1177.92 34.2663 1179.04 35.3945 1180.43 35.3945Z" fill="#F2F2F2"/>
<path d="M1187.36 35.3945C1188.75 35.3945 1189.88 34.2663 1189.88 32.8746C1189.88 31.483 1188.75 30.3548 1187.36 30.3548C1185.97 30.3548 1184.84 31.483 1184.84 32.8746C1184.84 34.2663 1185.97 35.3945 1187.36 35.3945Z" fill="#F2F2F2"/>
<path d="M1194.28 35.3945C1195.67 35.3945 1196.8 34.2663 1196.8 32.8746C1196.8 31.483 1195.67 30.3548 1194.28 30.3548C1192.89 30.3548 1191.77 31.483 1191.77 32.8746C1191.77 34.2663 1192.89 35.3945 1194.28 35.3945Z" fill="#F2F2F2"/>
<path d="M1044.72 124.172C1051.46 124.172 1056.94 118.813 1056.94 112.203C1056.94 105.592 1051.46 100.234 1044.72 100.234C1037.97 100.234 1032.5 105.592 1032.5 112.203C1032.5 118.813 1037.97 124.172 1044.72 124.172Z" fill="#F9A826"/>
<path d="M1142.66 108.108H1076.9C1074.64 108.108 1072.81 106.271 1072.81 104.013C1072.81 101.756 1074.64 99.9187 1076.9 99.9187H1142.66C1144.92 99.9187 1146.76 101.756 1146.76 104.013C1146.76 106.271 1144.92 108.108 1142.66 108.108Z" fill="#E6E6E6"/>
<path d="M1036.94 246.67C1035.89 246.67 1035.04 247.524 1035.04 248.575C1035.04 249.625 1035.89 250.48 1036.94 250.48H1105.82C1106.87 250.48 1107.73 249.625 1107.73 248.575C1107.73 247.524 1106.87 246.67 1105.82 246.67H1036.94Z" fill="#F2F2F2"/>
<path d="M1193.99 121.967H1076.9C1074.64 121.967 1072.81 120.13 1072.81 117.873C1072.81 115.615 1074.64 113.778 1076.9 113.778H1193.99C1196.24 113.778 1198.08 115.615 1198.08 117.873C1198.08 120.13 1196.24 121.967 1193.99 121.967Z" fill="#E6E6E6"/>
<path d="M1060.35 64.0108H1035.33C1033.6 64.0108 1032.18 62.5976 1032.18 60.8609C1032.18 59.1242 1033.6 57.7111 1035.33 57.7111H1060.35C1062.09 57.7111 1063.5 59.1242 1063.5 60.8609C1063.5 62.5976 1062.09 64.0108 1060.35 64.0108Z" fill="#E6E6E6"/>
<path d="M1193.67 58.0261H1168.65C1167.09 58.0261 1165.82 59.2953 1165.82 60.8609C1165.82 62.4266 1167.09 63.6958 1168.65 63.6958H1193.67C1195.24 63.6958 1196.51 62.4266 1196.51 60.8609C1196.51 59.2953 1195.24 58.0261 1193.67 58.0261Z" fill="#F9A826"/>
<path d="M1157.79 64.0108H1132.77C1131.03 64.0108 1129.62 62.5976 1129.62 60.8609C1129.62 59.1242 1131.03 57.7111 1132.77 57.7111H1157.79C1159.53 57.7111 1160.94 59.1242 1160.94 60.8609C1160.94 62.5976 1159.53 64.0108 1157.79 64.0108Z" fill="#E6E6E6"/>
<path d="M1063.97 237.419H1040.05C1035.71 237.419 1032.18 233.887 1032.18 229.545V221.723C1032.18 217.381 1035.71 213.849 1040.05 213.849H1063.97C1068.31 213.849 1071.84 217.381 1071.84 221.723V229.545C1071.84 233.887 1068.31 237.419 1063.97 237.419Z" fill="#F2F2F2"/>
<path d="M1190.21 192.338H1040.05C1035.71 192.338 1032.18 188.806 1032.18 184.464V150.001C1032.18 145.659 1035.71 142.126 1040.05 142.126H1190.21C1194.55 142.126 1198.08 145.659 1198.08 150.001V184.464C1198.08 188.806 1194.55 192.338 1190.21 192.338Z" fill="#F9A826"/>
<path d="M1189.25 237.419H1165.33C1160.99 237.419 1157.46 233.887 1157.46 229.545V221.723C1157.46 217.381 1160.99 213.849 1165.33 213.849H1189.25C1193.59 213.849 1197.12 217.381 1197.12 221.723V229.545C1197.12 233.887 1193.59 237.419 1189.25 237.419Z" fill="#F2F2F2"/>
<path d="M1126 237.419H1102.08C1097.74 237.419 1094.21 233.887 1094.21 229.545V221.723C1094.21 217.381 1097.74 213.849 1102.08 213.849H1126C1130.34 213.849 1133.87 217.381 1133.87 221.723V229.545C1133.87 233.887 1130.34 237.419 1126 237.419Z" fill="#F2F2F2"/>
<path d="M1072.49 272.214H1053.61V289.853H1072.49V272.214Z" fill="#F2F2F2"/>
<path d="M1072.49 297.412H1061.79V315.051H1072.49V297.412Z" fill="#F2F2F2"/>
<path d="M1097.04 297.412H1078.16V315.051H1097.04V297.412Z" fill="#F2F2F2"/>
<path d="M1097.04 322.611H1078.16V340.25H1097.04V322.611Z" fill="#F2F2F2"/>
<path d="M1121.59 297.412H1102.71V315.051H1121.59V297.412Z" fill="#F2F2F2"/>
<path d="M1097.04 272.214H1078.16V289.853H1097.04V272.214Z" fill="#F2F2F2"/>
<path d="M1121.59 272.214H1102.71V289.853H1121.59V272.214Z" fill="#F2F2F2"/>
<path d="M1170.7 272.214H1151.81V289.853H1170.7V272.214Z" fill="#F2F2F2"/>
<path d="M1121.59 322.611H1102.71V340.25H1121.59V322.611Z" fill="#F2F2F2"/>
<path d="M1146.15 272.214H1127.26V289.853H1146.15V272.214Z" fill="#F2F2F2"/>
<path d="M1180.45 297.412H1168.18V315.051H1180.45C1182.19 315.051 1183.6 313.641 1183.6 311.901V300.562C1183.6 298.822 1182.19 297.412 1180.45 297.412Z" fill="#F2F2F2"/>
<path d="M1072.49 322.611H1068.72C1066.98 322.611 1065.57 324.021 1065.57 325.761V337.1C1065.57 338.839 1066.98 340.25 1068.72 340.25H1072.49V322.611Z" fill="#F2F2F2"/>
<path d="M1146.15 322.611H1127.26V340.25H1146.15V322.611Z" fill="#F2F2F2"/>
<path d="M1194.62 272.214H1176.36V289.853H1194.62C1196.36 289.853 1197.77 288.442 1197.77 286.703V275.363C1197.77 273.624 1196.36 272.214 1194.62 272.214Z" fill="#F2F2F2"/>
<path d="M1162.51 322.877C1162.13 322.708 1161.7 322.611 1161.25 322.611H1151.81V340.25H1161.25C1161.7 340.25 1162.13 340.153 1162.51 339.984V322.877Z" fill="#F2F2F2"/>
<path d="M1146.15 297.412H1127.26V315.051H1146.15V297.412Z" fill="#F2F2F2"/>
<path d="M1162.51 297.412H1151.81V315.051H1162.51V297.412Z" fill="#F2F2F2"/>
<path d="M1056.13 297.412H1049.52C1047.78 297.412 1046.37 298.822 1046.37 300.562V311.901C1046.37 313.641 1047.78 315.051 1049.52 315.051H1056.13V297.412Z" fill="#F2F2F2"/>
<path d="M1047.94 272.214H1035.35C1033.61 272.214 1032.2 273.624 1032.2 275.363V286.703C1032.2 288.442 1033.61 289.853 1035.35 289.853H1047.94V272.214Z" fill="#F2F2F2"/>
<path d="M1169.44 367.058L1163.84 367.057L1161.17 345.409L1169.45 345.41L1169.44 367.058Z" fill="#FFB6B6"/>
<path d="M1169.64 372.913L1152.4 372.912V372.694C1152.4 368.984 1155.4 365.976 1159.11 365.976L1162.26 363.584L1168.14 365.976L1169.64 365.977L1169.64 372.913Z" fill="#2F2E41"/>
<path d="M1204.36 367.058L1198.75 367.057L1196.08 345.409L1204.36 345.41L1204.36 367.058Z" fill="#FFB6B6"/>
<path d="M1204.56 372.913L1187.31 372.912V372.694C1187.31 368.984 1190.32 365.976 1194.02 365.976L1197.18 363.584L1203.05 365.976L1204.56 365.977L1204.56 372.913Z" fill="#2F2E41"/>
<path d="M1215.69 201.279H1167.52L1161.67 219.355L1160.26 296.225L1160.51 356.208L1171.48 356.249L1181.14 291.773C1181.14 291.773 1180.07 285.431 1181.96 286.312C1183.85 287.194 1180.65 279.412 1182.88 280.153C1185.11 280.894 1187.28 250.802 1187.28 250.802L1192.59 296.225L1196.01 356.208H1205.9L1214.2 263.691C1214.2 263.691 1211.59 258.092 1215.03 254.374C1218.47 250.656 1218.12 219.937 1218.12 219.937L1215.69 201.279Z" fill="#2F2E41"/>
<path d="M1216.96 200.137C1216.96 200.137 1221.58 206.72 1217.55 217.031C1210.85 234.169 1166.43 219.755 1163.71 209.078C1159.53 207.635 1166.5 205.523 1164.44 202.021C1164.32 201.808 1165.6 206.559 1164.58 201.302C1162.96 192.864 1165.75 166.943 1165.75 166.943L1166.67 151.56C1167.56 136.659 1173.61 122.536 1183.79 111.62L1206.92 111.62L1216.96 127.925L1218 168.795L1216.96 200.137Z" fill="#3F3D56"/>
<path d="M1146.45 201.692L1153.62 190.811L1159.88 194.425L1151.92 205.634C1151.95 206.067 1151.92 206.51 1151.82 206.954C1151.3 209.367 1149.09 210.861 1146.88 210.29C1144.67 209.719 1143.31 207.3 1143.83 204.887C1144.16 203.348 1145.18 202.186 1146.45 201.692Z" fill="#FFB6B6"/>
<path d="M1180.4 115.114C1172.37 115.114 1165.75 121.442 1165.4 129.475L1163.86 164.078C1163.86 164.078 1163.85 165.999 1163.14 165.43C1162.43 164.861 1162.37 166.874 1162.37 166.874C1162.37 166.874 1162.34 169.952 1161.67 168.19C1161 166.428 1160.91 169.617 1160.91 169.617L1151.15 186.418C1152.46 189.132 1151.44 192.487 1151.12 195.219L1158.13 201.682C1158.13 201.682 1158.07 199.742 1159.58 199.775C1168.86 199.975 1178.35 174.914 1178.19 165.645C1178.01 155.068 1180.4 115.114 1180.4 115.114Z" fill="#3F3D56"/>
<path d="M1183.7 66.9705L1190.87 77.8515L1197.12 74.2375L1189.17 63.0285C1189.19 62.5959 1189.16 62.1522 1189.06 61.7085C1188.54 59.2954 1186.33 57.802 1184.12 58.3729C1181.92 58.9438 1180.55 61.3628 1181.07 63.7759C1181.41 65.3148 1182.43 66.4765 1183.7 66.9705Z" fill="#FFB6B6"/>
<path d="M1217.64 153.549C1209.61 153.549 1203 147.22 1202.64 139.188L1201.11 104.585C1201.11 104.585 1201.1 102.663 1200.39 103.232C1199.67 103.802 1199.61 101.789 1199.61 101.789C1199.61 101.789 1199.58 98.7105 1198.91 100.473C1198.24 102.235 1198.15 99.0461 1198.15 99.0461L1185.39 75.1382L1186.12 72.0196L1193.1 66.7784C1193.1 66.7784 1195.92 67.6773 1196.83 68.8882C1201.41 74.9969 1215.26 94.1914 1215.43 103.018C1215.64 113.594 1217.64 153.549 1217.64 153.549Z" fill="#3F3D56"/>
<path d="M1189.32 108.122C1189.67 108.201 1190.01 108.27 1190.35 108.322C1191.41 108.496 1192.48 108.549 1193.51 108.486C1196.66 108.322 1199.63 107.158 1202.03 105.241C1204.57 103.219 1206.46 100.359 1207.26 96.9568C1209.12 88.9251 1204.13 80.888 1196.1 79.0183C1188.19 77.1697 1180.28 81.9941 1178.26 89.8204C1178.23 89.9415 1178.2 90.0574 1178.17 90.1785C1176.3 98.2156 1181.29 106.247 1189.32 108.122Z" fill="#FFB6B6"/>
<path d="M1208.03 98.47C1205.95 103.973 1200.68 108.335 1194.8 108.597C1193.8 108.638 1192.76 108.562 1191.87 108.085C1190.98 107.613 1190.29 106.664 1190.37 105.662C1190.53 103.688 1193.21 102.931 1193.97 101.096C1194.47 99.8852 1193.89 98.3303 1192.71 97.7421C1191.54 97.1598 1189.95 97.6256 1189.28 98.7612C1190.5 96.8977 1189.79 94.2713 1188.25 92.6698C1186.71 91.0625 1184.55 90.2414 1182.47 89.4611L1182.42 88.669C1180.95 89.2339 1179.34 88.0983 1178.7 86.625C1179.45 85.7223 1179.92 84.6275 1180.37 83.5502C1179.76 83.9811 1179.08 84.2956 1178.36 84.4877C1178.4 83.2066 1176.48 82.5951 1176.8 81.3372C1177.26 79.5902 1179.88 76.9754 1179.02 75.3914C1180.63 75.8456 1181.68 77.7208 1181.22 79.3281C1181.8 77.7557 1182.37 76.1834 1182.95 74.6052C1183.4 75.7001 1183.85 76.7949 1184.3 77.8839C1186.49 76.5153 1188.76 75.1235 1191.31 74.6867C1193.86 74.2442 1196.79 74.9896 1198.22 77.1559C1199.7 76.2533 1201.69 76.5328 1203.16 77.4704C1204.63 78.408 1205.65 79.893 1206.47 81.4304C1209.25 86.6133 1210.11 92.9726 1208.03 98.47Z" fill="#2F2E41"/>
<path d="M1283.84 363.055C1285.14 363.136 1285.86 361.519 1284.88 360.577L1284.78 360.188C1284.79 360.156 1284.81 360.125 1284.82 360.094C1286.13 356.956 1290.59 356.977 1291.9 360.12C1293.05 362.91 1294.53 365.704 1294.89 368.654C1295.05 369.956 1294.98 371.282 1294.69 372.56C1297.4 366.632 1298.83 360.158 1298.83 353.648C1298.83 352.012 1298.74 350.377 1298.56 348.745C1298.41 347.41 1298.2 346.084 1297.93 344.77C1296.48 337.665 1293.34 330.899 1288.8 325.247C1286.62 324.055 1284.81 322.192 1283.71 319.958C1283.31 319.152 1283.01 318.286 1282.86 317.403C1283.11 317.435 1283.79 313.655 1283.61 313.423C1283.95 312.898 1284.57 312.638 1284.95 312.125C1286.83 309.578 1289.41 310.023 1290.76 313.484C1293.65 314.941 1293.68 317.357 1291.91 319.681C1290.78 321.16 1290.63 323.16 1289.64 324.743C1289.74 324.873 1289.84 324.999 1289.95 325.129C1291.81 327.522 1293.42 330.094 1294.78 332.795C1294.4 329.793 1294.96 326.175 1295.93 323.844C1297.03 321.187 1299.09 318.949 1300.91 316.653C1303.09 313.894 1307.57 315.098 1307.95 318.595C1307.95 318.629 1307.96 318.663 1307.96 318.697C1307.69 318.849 1307.43 319.011 1307.17 319.182C1305.7 320.156 1306.21 322.441 1307.95 322.71L1307.99 322.717C1307.89 323.689 1307.73 324.653 1307.48 325.601C1309.81 334.62 1304.78 337.904 1297.6 338.052C1297.44 338.133 1297.29 338.215 1297.13 338.292C1297.85 340.343 1298.44 342.446 1298.87 344.578C1299.25 346.462 1299.52 348.367 1299.67 350.279C1299.86 352.692 1299.84 355.117 1299.64 357.526L1299.65 357.44C1300.17 354.787 1301.61 352.309 1303.7 350.592C1306.81 348.033 1311.21 347.09 1314.57 345.033C1316.18 344.043 1318.26 345.323 1317.97 347.199L1317.96 347.288C1317.46 347.492 1316.97 347.728 1316.5 347.992C1316.23 348.145 1315.97 348.306 1315.71 348.477C1314.24 349.452 1314.74 351.737 1316.49 352.006L1316.53 352.012C1316.56 352.016 1316.58 352.02 1316.61 352.024C1315.75 354.063 1314.56 355.955 1313.06 357.587C1311.6 365.459 1305.35 366.206 1298.65 363.914H1298.65C1297.92 367.104 1296.85 370.22 1295.47 373.191H1284.13C1284.09 373.064 1284.05 372.934 1284.01 372.808C1285.06 372.873 1286.12 372.812 1287.15 372.621C1286.31 371.588 1285.47 370.546 1284.63 369.512C1284.61 369.492 1284.59 369.472 1284.57 369.451C1284.15 368.922 1283.72 368.398 1283.29 367.869L1283.29 367.868C1283.26 366.244 1283.46 364.626 1283.84 363.055Z" fill="#F2F2F2"/>
<path d="M970 373.224C970 373.64 970.334 373.974 970.749 373.974H1317.16C1317.58 373.974 1317.91 373.64 1317.91 373.224C1317.91 372.809 1317.58 372.475 1317.16 372.475H970.749C970.334 372.475 970 372.809 970 373.224Z" fill="#CCCCCC"/>
</g>
<g clip-path="url(#clip2_0_1)">
<path d="M1230.5 955.233C1230.1 970.103 1227.61 984.843 1223.1 999.018C1223 999.347 1222.89 999.671 1222.78 1000H1195.17C1195.2 999.705 1195.23 999.376 1195.26 999.018C1197.1 977.852 1186.58 850.565 1173.89 828.535C1175 830.322 1232.64 887.979 1230.5 955.233Z" fill="#F0F0F0"/>
<path d="M1228.43 999.018C1228.2 999.347 1227.96 999.676 1227.71 1000H1206.99C1207.15 999.72 1207.33 999.391 1207.54 999.018C1210.97 992.842 1221.1 974.376 1230.5 955.233C1240.6 934.661 1249.87 913.309 1249.09 905.581C1249.33 907.323 1256.32 960.457 1228.43 999.018Z" fill="#F0F0F0"/>
<path d="M1297.92 975.458C1297.7 983.61 1296.34 991.691 1293.87 999.462C1293.81 999.642 1293.75 999.82 1293.69 1000H1278.55C1278.57 999.838 1278.59 999.658 1278.6 999.462C1279.61 987.858 1273.84 918.077 1266.89 906C1267.5 906.98 1299.1 938.588 1297.92 975.458Z" fill="#F0F0F0"/>
<path d="M1296.79 999.462C1296.66 999.642 1296.53 999.822 1296.39 1000H1285.04C1285.12 999.846 1285.22 999.666 1285.34 999.462C1287.21 996.076 1292.77 985.952 1297.92 975.458C1303.46 964.18 1308.54 952.475 1308.11 948.238C1308.25 949.193 1312.08 978.322 1296.79 999.462Z" fill="#F0F0F0"/>
<path d="M1154.92 975.458C1154.7 983.61 1153.34 991.691 1150.87 999.462C1150.81 999.642 1150.75 999.82 1150.69 1000H1135.55C1135.57 999.838 1135.59 999.658 1135.6 999.462C1136.61 987.858 1130.84 918.077 1123.89 906C1124.5 906.98 1156.1 938.588 1154.92 975.458Z" fill="#F0F0F0"/>
<path d="M1153.79 999.462C1153.66 999.642 1153.53 999.822 1153.39 1000H1142.04C1142.12 999.846 1142.22 999.666 1142.34 999.462C1144.21 996.076 1149.77 985.952 1154.92 975.458C1160.46 964.18 1165.54 952.475 1165.11 948.238C1165.25 949.193 1169.08 978.322 1153.79 999.462Z" fill="#F0F0F0"/>
<path d="M881.574 985.1H896.13L903.055 928.955L881.572 928.956L881.574 985.1Z" fill="#FFB7B7"/>
<path d="M877.861 980.348L906.527 980.347H906.529C911.374 980.347 916.02 982.272 919.446 985.697C922.872 989.123 924.797 993.77 924.797 998.615V999.208L877.862 999.21L877.861 980.348Z" fill="#2F2E41"/>
<path d="M802.763 985.1H817.319L824.243 928.955L802.76 928.956L802.763 985.1Z" fill="#FFB7B7"/>
<path d="M799.05 980.348L827.716 980.347H827.717C832.562 980.347 837.208 982.272 840.634 985.697C844.06 989.123 845.985 993.77 845.985 998.615V999.208L799.05 999.21L799.05 980.348Z" fill="#2F2E41"/>
<path d="M796.832 730.638V878.879L800.585 974.579H831.547L841.867 794.438L862.508 868.559L875.644 972.702L913.173 970.826L887.841 730.638H796.832Z" fill="#2F2E41"/>
<path d="M832.824 597.409C845.261 597.409 855.342 587.327 855.342 574.891C855.342 562.455 845.261 552.373 832.824 552.373C820.388 552.373 810.307 562.455 810.307 574.891C810.307 587.327 820.388 597.409 832.824 597.409Z" fill="#FFB8B8"/>
<path d="M823.468 603.275L817.473 609.606L811.844 736.268L878.458 734.391L862.508 623.68L848.435 610.193L841.294 603.275H823.468Z" fill="#F9A826"/>
<path d="M812.782 617.112L817.838 608.905L819.349 626.494C819.349 626.494 831.546 665.9 830.608 700.614C829.67 735.329 835.299 816.955 827.794 817.894C820.288 818.832 788.388 820.708 788.388 814.141C788.388 807.573 786.511 633.062 786.511 633.062L812.782 617.112Z" fill="#3F3D56"/>
<path d="M846.924 608.905L859.693 618.988L887.84 629.309C887.84 629.309 887.84 749.403 893.47 777.549C899.099 805.696 909.42 808.511 896.285 809.449C883.149 810.388 884.088 805.697 884.088 805.697C884.088 805.697 893.47 758.785 881.273 749.402C869.076 740.02 845.62 685.603 847.496 655.579C849.373 625.556 845.047 608.905 846.924 608.905Z" fill="#3F3D56"/>
<path d="M811.522 581.936C811.522 581.936 813.435 578.576 812.99 567.352C812.545 556.128 829.637 562.476 843.919 561.406C858.2 560.335 855.177 580.144 855.177 580.144C855.177 580.144 856.207 578.967 858.413 569.406C860.619 559.845 855.611 550.318 855.611 550.318C854.136 540.271 846.186 543.491 846.186 543.491C850.014 544.982 849.279 548.169 849.279 548.169C846.038 542.487 838.088 545.707 838.088 545.707C827.485 539.053 816.739 547.815 816.739 547.815C803.93 550.722 811.442 560.908 811.442 560.908C798.561 567.418 811.522 581.936 811.522 581.936Z" fill="#2F2E41"/>
<path d="M788.419 800.574C789.374 799.565 790.095 798.36 790.533 797.042C790.971 795.724 791.115 794.327 790.955 792.947C790.794 791.568 790.333 790.241 789.604 789.059C788.875 787.877 787.895 786.869 786.735 786.107L790.791 764.783L778.434 759.158L773.129 789.351C771.977 791.386 771.612 793.772 772.102 796.058C772.593 798.344 773.904 800.371 775.789 801.754C777.674 803.138 780.001 803.782 782.328 803.564C784.656 803.347 786.823 802.283 788.419 800.574Z" fill="#FFB7B7"/>
<path d="M791.202 633.062L788.711 631.726C788.711 631.726 775.252 636.814 776.191 640.567C777.129 644.32 768.685 775.673 771.499 780.364C774.314 785.055 796.832 781.302 796.832 781.302L791.202 633.062Z" fill="#3F3D56"/>
<path d="M898.31 791.731C897.225 790.864 896.344 789.77 895.727 788.525C895.111 787.281 894.775 785.916 894.744 784.528C894.712 783.14 894.985 781.761 895.543 780.49C896.102 779.219 896.932 778.085 897.976 777.169L891.009 756.612L902.469 749.331L911.901 778.5C913.323 780.356 914.015 782.669 913.845 785.001C913.676 787.332 912.657 789.521 910.982 791.152C909.307 792.783 907.091 793.742 904.756 793.849C902.42 793.956 900.127 793.202 898.31 791.731Z" fill="#FFB7B7"/>
<path d="M887.312 773.808C887.312 773.808 910.132 774.41 912.271 769.374C914.409 764.339 887.872 635.418 888.282 631.571C888.692 627.724 874.659 624.547 874.659 624.547L872.376 626.214L887.312 773.808Z" fill="#3F3D56"/>
<path d="M988.171 779.609L974.043 710.38L967.837 659.247L954.087 668.142L955.987 724.49L977.932 782.873C977.227 784.216 976.937 785.739 977.1 787.247C977.262 788.756 977.869 790.182 978.844 791.345C979.819 792.507 981.118 793.353 982.575 793.776C984.033 794.198 985.583 794.178 987.028 793.717C988.474 793.256 989.75 792.376 990.694 791.188C991.638 790 992.207 788.559 992.33 787.046C992.453 785.534 992.123 784.02 991.382 782.695C990.642 781.371 989.524 780.297 988.171 779.609Z" fill="#FFB7B7"/>
<path d="M856.031 784.962L859.942 714.414L858.646 662.923L876.824 669.724L879.858 725.749L866.636 786.702C867.529 787.928 868.037 789.393 868.096 790.909C868.155 792.425 867.761 793.925 866.965 795.216C866.17 796.508 865.008 797.534 863.628 798.164C862.247 798.794 860.711 798.999 859.214 798.754C857.716 798.508 856.326 797.823 855.219 796.785C854.112 795.747 853.339 794.403 852.998 792.925C852.657 791.447 852.763 789.9 853.303 788.482C853.843 787.064 854.793 785.839 856.031 784.962Z" fill="#FFB7B7"/>
<path d="M894.101 990.07H903.389L907.808 954.244L894.1 954.245L894.101 990.07Z" fill="#FFB7B7"/>
<path d="M891.732 987.038L910.023 987.037C913.115 987.037 916.081 988.265 918.267 990.451C920.453 992.637 921.681 995.602 921.681 998.694V999.072L891.732 999.073L891.732 987.038Z" fill="#2F2E41"/>
<path d="M929.281 985.96L938.46 987.38L948.305 952.651L934.757 950.556L929.281 985.96Z" fill="#FFB7B7"/>
<path d="M927.403 982.601L945.48 985.397C948.535 985.87 951.278 987.537 953.104 990.032C954.93 992.526 955.691 995.644 955.218 998.699L955.16 999.073L925.564 994.495L927.403 982.601Z" fill="#2F2E41"/>
<path d="M891.373 979.374L891.325 979.114L857.7 797.318C855.031 782.723 857.16 767.657 863.769 754.373L884.12 713.671L944.847 721.898L952.014 773.719L977.554 872.575L977.528 872.655L944.806 976.596L923.361 978.007L942.358 885.225L907.574 806.219L910.027 977.96L891.373 979.374Z" fill="#2F2E41"/>
<path d="M946.261 728.53L945.86 727.902C945.788 727.788 938.411 716.675 918.338 724.095C897.847 731.672 881.97 717.039 881.811 716.89L881.733 716.816L877.092 675.454L871.614 641.876L889.053 638.817L897.626 633.673L931.718 633.066L940.69 640.122L955.419 641.727L956.768 672.323L956.761 672.356L946.261 728.53Z" fill="#F9A826"/>
<path d="M951.147 675.282V649.084L955.289 641.525L955.457 641.52C958.718 641.641 961.8 643.041 964.036 645.417C968.202 649.65 970.089 656.703 969.646 666.379L969.637 666.556L951.147 675.282Z" fill="#F9A826"/>
<path d="M878.952 672.434L857.841 669.901L857.825 669.658C857.105 659.13 858.942 651.316 863.286 646.431C865.467 643.819 868.56 642.135 871.937 641.721L872.059 641.715L877.774 646.911L878.952 672.434Z" fill="#F9A826"/>
<path d="M940.064 622.51H884.512C883.37 622.508 882.274 622.054 881.466 621.246C880.658 620.438 880.204 619.342 880.202 618.2V598.086C880.195 593.868 881.02 589.69 882.629 585.791C884.239 581.892 886.601 578.348 889.581 575.363C892.561 572.378 896.101 570.01 899.997 568.394C903.894 566.778 908.07 565.946 912.288 565.946C916.507 565.946 920.683 566.778 924.58 568.394C928.476 570.01 932.015 572.378 934.996 575.363C937.976 578.348 940.338 581.892 941.947 585.791C943.557 589.69 944.381 593.868 944.374 598.086V618.2C944.373 619.342 943.919 620.438 943.111 621.246C942.303 622.054 941.207 622.508 940.064 622.51Z" fill="#2F2E41"/>
<path d="M913.578 622.312C926.57 622.312 937.102 611.779 937.102 598.787C937.102 585.795 926.57 575.263 913.578 575.263C900.586 575.263 890.054 585.795 890.054 598.787C890.054 611.779 900.586 622.312 913.578 622.312Z" fill="#FFB7B7"/>
<path d="M935.938 599.523H904.88C904.297 599.522 903.734 599.308 903.296 598.922C902.859 598.536 902.577 598.004 902.505 597.425L902.102 594.208C902.064 593.899 901.926 593.61 901.709 593.386C901.492 593.163 901.208 593.015 900.9 592.967C900.592 592.918 900.277 592.971 900.002 593.118C899.727 593.264 899.507 593.496 899.375 593.779L897.339 598.141C897.145 598.553 896.838 598.902 896.454 599.146C896.07 599.391 895.624 599.522 895.169 599.523H890.451C890.118 599.523 889.788 599.453 889.482 599.318C889.177 599.183 888.904 598.986 888.679 598.739C888.455 598.492 888.284 598.201 888.179 597.884C888.074 597.567 888.036 597.232 888.068 596.9L889.928 577.47C889.968 577.054 890.115 576.656 890.355 576.314C890.594 575.972 890.919 575.699 891.296 575.52C905.52 568.88 919.943 568.888 934.167 575.545C934.528 575.715 934.841 575.972 935.077 576.293C935.314 576.613 935.467 576.988 935.522 577.383L938.308 596.788C938.357 597.127 938.333 597.474 938.236 597.803C938.139 598.132 937.973 598.437 937.748 598.697C937.523 598.956 937.245 599.164 936.933 599.307C936.621 599.449 936.282 599.523 935.938 599.523Z" fill="#2F2E41"/>
<path d="M948.717 781.809C949.901 781.39 950.979 780.717 951.875 779.836C952.77 778.955 953.462 777.889 953.901 776.712C954.34 775.535 954.515 774.276 954.415 773.024C954.315 771.772 953.941 770.557 953.321 769.465L973.456 746.512L957.738 744.343L941.027 766.473C939.261 767.637 937.984 769.408 937.437 771.451C936.89 773.494 937.112 775.666 938.06 777.557C939.008 779.447 940.616 780.924 942.58 781.708C944.545 782.492 946.728 782.528 948.717 781.809Z" fill="#9F616A"/>
<path d="M973 985.234L958.957 985.233L952.276 931.067L973.003 931.068L973 985.234Z" fill="#9F616A"/>
<path d="M976.581 998.847L931.301 998.845V998.272C931.301 993.598 933.158 989.115 936.463 985.81C939.768 982.505 944.251 980.648 948.925 980.648H948.926L976.582 980.649L976.581 998.847Z" fill="#2F2E41"/>
<path d="M1046.51 973.482L1033.1 977.646L1010.66 927.897L1030.45 921.752L1046.51 973.482Z" fill="#9F616A"/>
<path d="M1053.97 985.42L1010.72 998.847L1010.55 998.3C1009.17 993.836 1009.61 989.004 1011.79 984.867C1013.96 980.731 1017.7 977.628 1022.16 976.242L1022.16 976.241L1048.57 968.041L1053.97 985.42Z" fill="#2F2E41"/>
<path d="M962.246 735.506L941.448 759.325L957.73 760.79L962.246 735.506Z" fill="#E6E6E6"/>
<path d="M954.119 766.208C954.119 766.208 946.895 769.82 945.992 786.075C945.089 802.33 948.701 844.775 948.701 844.775C948.701 844.775 945.09 863.738 948.701 880.895C952.313 898.052 945.09 960.358 949.605 960.358C954.119 960.358 977.598 963.067 978.501 960.358C979.404 957.648 980.307 917.013 980.307 917.013C980.307 917.013 987.531 896.243 980.307 883.605C980.307 883.605 1005.53 927.649 1021.85 961.264C1025.42 968.62 1052.55 960.36 1048.03 952.233C1043.52 944.106 1032.68 907.082 1032.68 907.082C1032.68 907.082 1024.55 879.991 1010.11 868.252L1017.33 810.459C1017.33 810.459 1032.68 771.629 1023.65 766.211C1014.63 760.793 954.119 766.208 954.119 766.208Z" fill="#2F2E41"/>
<path d="M981.209 619.015C994.176 619.015 1004.69 608.504 1004.69 595.537C1004.69 582.57 994.176 572.059 981.209 572.059C968.243 572.059 957.731 582.57 957.731 595.537C957.731 608.504 968.243 619.015 981.209 619.015Z" fill="#A0616A"/>
<path d="M1007.4 620.822L978.209 637.979C978.209 637.979 967.033 644.272 962.859 655.136C958.409 666.713 960.995 683.014 962.859 686.741C966.47 693.966 961.344 712.026 961.344 712.026L956.829 753.564C956.829 753.564 940.575 768.915 953.217 770.721C965.859 772.528 988.434 769.818 1001.98 770.721C1015.53 771.625 1030.88 773.431 1026.36 764.399C1021.85 755.366 1016.43 749.047 1021.85 730.99C1026.09 716.858 1025.9 664.017 1025.62 641.701C1025.58 638.637 1024.76 635.633 1023.23 632.976C1021.71 630.319 1019.53 628.097 1016.9 626.521L1007.4 620.822Z" fill="#E5E5E5"/>
<path opacity="0.1" d="M994.307 649.267L997.016 704.351L970.762 757.517L966.31 755.823L993.4 706.157L994.307 649.267Z" fill="black"/>
<path opacity="0.1" d="M1024.1 716.09V709.767L993.404 760.337L1024.1 716.09Z" fill="black"/>
<path d="M964.546 573.787L960.668 572.236C960.668 572.236 968.785 563.301 980.075 564.077L976.899 560.581C976.899 560.581 984.661 557.474 991.719 565.631C995.429 569.919 999.721 574.96 1002.4 580.638H1006.56L1004.82 584.458L1010.89 588.279L1004.66 587.595C1005.25 590.893 1005.05 594.284 1004.07 597.489L1004.24 600.508C1004.24 600.508 997.015 589.324 997.015 587.773V591.658C997.015 591.658 993.133 588.161 993.133 585.831L991.016 588.55L989.957 584.278L976.901 588.55L979.017 585.052L970.9 586.218L974.076 581.945C974.076 581.945 964.902 586.995 964.549 591.269C964.196 595.543 959.609 600.981 959.609 600.981L957.492 597.096C957.492 597.096 954.317 579.615 964.546 573.787Z" fill="#2F2E41"/>
<path d="M979.736 784.365C980.827 783.742 981.768 782.888 982.493 781.862C983.218 780.836 983.709 779.664 983.933 778.428C984.156 777.192 984.105 775.922 983.784 774.707C983.463 773.493 982.88 772.364 982.075 771.399L997.816 745.236L981.963 745.892L969.446 770.636C967.915 772.095 966.972 774.065 966.797 776.173C966.621 778.28 967.225 780.379 968.493 782.071C969.762 783.763 971.607 784.931 973.679 785.354C975.751 785.777 977.906 785.425 979.736 784.365Z" fill="#9F616A"/>
<path d="M1015.53 632.562L1022.3 631.208C1022.3 631.208 1042.62 646.108 1036.29 675.907C1029.97 705.706 1001.98 750.857 1001.98 750.857C1001.98 750.857 995.657 758.985 993.852 760.79C992.048 762.596 988.434 760.79 990.241 763.5C992.047 766.209 987.531 768.015 987.531 768.015C987.531 768.015 967.665 768.015 969.471 760.79C971.277 753.566 1001.98 702.09 1001.98 702.09L997.465 654.231C997.465 654.231 993.852 630.756 1015.53 632.562Z" fill="#E5E5E5"/>
<path d="M1332.8 1001H721.802C721.537 1001 721.282 1000.89 721.095 1000.71C720.907 1000.52 720.802 1000.27 720.802 1000C720.802 999.735 720.907 999.48 721.095 999.293C721.282 999.105 721.537 999 721.802 999H1332.8C1333.07 999 1333.32 999.105 1333.51 999.293C1333.7 999.48 1333.8 999.735 1333.8 1000C1333.8 1000.27 1333.7 1000.52 1333.51 1000.71C1333.32 1000.89 1333.07 1001 1332.8 1001Z" fill="#CACACA"/>
<path d="M583.107 584.77V585.114H573.678C572.231 585.114 570.843 585.689 569.82 586.712C568.796 587.736 568.221 589.124 568.221 590.571V610.547C568.221 611.994 568.796 613.382 569.82 614.405C570.843 615.429 572.231 616.004 573.678 616.004H625.404C626.851 616.004 628.239 615.429 629.263 614.405C630.286 613.382 630.861 611.994 630.861 610.547V590.571C630.861 589.124 630.286 587.736 629.263 586.712C628.239 585.689 626.851 585.114 625.404 585.114H589.818V584.77L583.107 584.77Z" fill="#3F3D56"/>
<path d="M720.208 667.738C720.427 697.218 701.591 692.759 678.625 692.759C655.66 692.759 639.045 697.15 637.043 667.738C633.861 621 646.137 586 678.625 586C712.233 586 719.861 621 720.208 667.738Z" fill="#2F2E41"/>
<path d="M594.431 605.208C595.173 606.71 595.577 608.356 595.614 610.03C595.651 611.704 595.321 613.367 594.646 614.899C593.972 616.432 592.969 617.799 591.709 618.902C590.449 620.006 588.963 620.82 587.354 621.286L585.259 661.943L568.221 649.403L572.823 612.717C572.218 609.963 572.644 607.083 574.02 604.622C575.397 602.161 577.628 600.291 580.292 599.365C582.955 598.439 585.866 598.523 588.472 599.6C591.078 600.677 593.198 602.673 594.431 605.208Z" fill="#A0616A"/>
<path d="M748.074 834.977C748.999 833.58 749.606 831.998 749.853 830.341C750.099 828.685 749.98 826.994 749.503 825.389C749.026 823.784 748.203 822.302 747.091 821.049C745.98 819.797 744.607 818.803 743.07 818.138L746.09 777.539L727.614 787.843L727.578 824.817C726.632 827.473 726.694 830.384 727.751 832.998C728.808 835.612 730.787 837.748 733.313 839C735.84 840.253 738.738 840.535 741.458 839.793C744.179 839.052 746.533 837.338 748.074 834.977Z" fill="#A0616A"/>
<path d="M662.985 1030.41L676.952 1030.41L683.596 976.535L662.982 976.536L662.985 1030.41Z" fill="#A0616A"/>
<path d="M659.422 1025.85L686.928 1025.85H686.929C689.231 1025.85 691.51 1026.3 693.637 1027.18C695.764 1028.06 697.696 1029.35 699.324 1030.98C700.952 1032.61 702.243 1034.54 703.124 1036.67C704.005 1038.8 704.458 1041.07 704.458 1043.38V1043.95L659.423 1043.95L659.422 1025.85Z" fill="#2F2E41"/>
<path d="M751.846 1030.41L765.813 1030.41L772.458 976.535L751.844 976.536L751.846 1030.41Z" fill="#A0616A"/>
<path d="M748.284 1025.85L775.79 1025.85H775.791C778.093 1025.85 780.372 1026.3 782.499 1027.18C784.626 1028.06 786.558 1029.35 788.186 1030.98C789.813 1032.61 791.105 1034.54 791.985 1036.67C792.866 1038.8 793.32 1041.07 793.32 1043.38V1043.95L748.284 1043.95L748.284 1025.85Z" fill="#2F2E41"/>
<path d="M743.874 812.608L743.267 812.498C738.18 811.577 733.031 810.645 728.504 809.672L728.056 809.575L728.054 809.117C727.976 788.467 727.898 767.82 727.784 746.986C716.971 725.191 712.425 700.821 714.653 676.593L714.679 676.337L714.889 676.187C716.86 674.818 719.159 673.999 721.551 673.814C723.943 673.629 726.341 674.085 728.499 675.134C730.61 676.288 732.414 677.93 733.761 679.922C735.109 681.915 735.96 684.201 736.245 686.589C740.362 709.027 744.624 732.263 749.378 755.159L749.395 755.243L749.387 755.328C747.626 774.001 745.805 793.311 743.936 811.994L743.874 812.608Z" fill="#F9A826"/>
<path d="M734.769 1011.21L734.658 1010.68C728.124 979.777 721.817 954.608 715.717 930.269C708.407 901.1 701.48 873.46 694.487 837.691C695.448 882.798 697.678 915.204 700.242 952.453C701.4 969.273 702.597 986.665 703.812 1006.97L703.849 1007.59L703.229 1007.57C681.37 1007.01 658.974 1005.66 637.315 1004.36L636.742 1004.32L636.781 1003.75C640.881 943.309 642.166 904.034 643.104 875.356C645.084 814.852 645.388 805.552 667.926 754.347C668.78 752.404 673.877 746.665 679.48 747.539L723.823 754.44L723.9 754.831C725.152 761.133 731.361 780.258 739.955 806.728C758.326 863.313 786.09 948.826 794.763 999.799L794.861 1000.38L794.281 1000.46C781.684 1002.25 772.617 1004.11 763.849 1005.92C755.554 1007.62 746.976 1009.39 735.3 1011.13L734.769 1011.21Z" fill="#2F2E41"/>
<path d="M696.23 770.435C684.395 770.437 672.697 766.33 664.311 758.334C663.001 757.572 661.892 756.506 661.08 755.225C660.267 753.945 659.774 752.489 659.642 750.978C659.427 749.594 659.517 748.18 659.907 746.835C660.296 745.49 660.975 744.246 661.896 743.191C653.675 733.24 645.186 722.954 637.06 712.48L636.836 712.191L637.096 711.695C642.412 701.537 647.909 691.035 653.189 680.657C653.556 679.752 654.161 678.964 654.939 678.374C655.718 677.785 656.641 677.417 657.611 677.308C658.454 677.149 659.32 677.163 660.158 677.35C660.995 677.537 661.785 677.893 662.48 678.396L662.49 678.144C662.711 672.89 662.932 667.637 663.159 662.657L663.183 662.125L663.715 662.113C673.866 661.889 684.362 661.657 694.673 661.046L695.065 661.023L700.179 672.43C708.484 671.623 716.841 673.319 724.175 677.3L724.513 677.481L724.474 677.861C722.417 697.465 722.864 717.252 725.805 736.743C725.645 745.642 725.474 754.739 723.668 761.989L723.615 762.2L723.435 762.323C715.375 767.672 705.903 770.496 696.23 770.435Z" fill="#F9A826"/>
<path d="M652.667 720.947L651.986 720.634C644.034 716.645 636.056 712.219 628.342 707.939L627.276 707.731C606.964 703.653 595.775 701.408 577.45 690.662L577.309 690.579L577.234 690.434C568.058 672.906 565.498 657.584 567.79 633.902L567.836 633.427L568.311 633.389C570.297 633.228 573.535 633.12 576.666 633.015C579.712 632.914 582.862 632.808 584.793 632.657L585.241 632.621L585.38 633.049C587.781 640.464 589.821 647.382 591.981 654.706C594.201 662.234 596.495 670.015 599.29 678.661C609.522 681.602 636.953 680.723 645.482 679.561C648.033 679.373 650.59 679.83 652.919 680.889C655.247 681.947 657.272 683.574 658.808 685.62L658.966 685.818L658.925 686.068C657.047 697.528 654.891 709.055 652.806 720.203L652.667 720.947Z" fill="#F9A826"/>
<path d="M702.666 643.242C710.079 629.682 705.095 612.681 691.536 605.269C677.976 597.856 660.974 602.84 653.562 616.399C646.149 629.959 651.133 646.961 664.693 654.373C678.252 661.786 695.254 656.802 702.666 643.242Z" fill="#A0616A"/>
<path d="M646.157 628.152H657.224L662.106 614.481L663.082 628.152H668.372L671.22 620.178L671.79 628.152H711.094C711.094 620.296 707.973 612.762 702.418 607.207C696.863 601.652 689.329 598.532 681.474 598.532H675.777C667.921 598.532 660.387 601.652 654.832 607.207C649.277 612.762 646.157 620.296 646.157 628.152Z" fill="#2F2E41"/>
</g>
<defs>
<clipPath id="clip0_0_1">
<rect width="863" height="748" fill="white"/>
</clipPath>
<clipPath id="clip1_0_1">
<rect width="348" height="349" fill="white" transform="translate(970 25)"/>
</clipPath>
<clipPath id="clip2_0_1">
<rect width="766.802" height="500.948" fill="white" transform="translate(567 543)"/>
</clipPath>
</defs>
</svg>
